<?xml version="1.0" encoding="utf-8" standalone="no"?>
<!DOCTYPE svg PUBLIC "-//W3C//DTD SVG 1.1//EN"
  "http://www.w3.org/Graphics/SVG/1.1/DTD/svg11.dtd">
<svg height="345.6pt" version="1.1" viewBox="0 0 460.8 345.6" width="460.8pt" xmlns="http://www.w3.org/2000/svg" xmlns:xlink="http://www.w3.org/1999/xlink">
 <metadata>
  <rdf:RDF xmlns:cc="http://creativecommons.org/ns#" xmlns:dc="http://purl.org/dc/elements/1.1/" xmlns:rdf="http://www.w3.org/1999/02/22-rdf-syntax-ns#">
   <cc:Work>
    <dc:type rdf:resource="http://purl.org/dc/dcmitype/StillImage"/>
    <dc:date>2022-08-27T10:57:48.136913</dc:date>
    <dc:format>image/svg+xml</dc:format>
    <dc:creator>
     <cc:Agent>
      <dc:title>Matplotlib v3.4.3, https://matplotlib.org/</dc:title>
     </cc:Agent>
    </dc:creator>
   </cc:Work>
  </rdf:RDF>
 </metadata>
 <defs>
  <style type="text/css">*{stroke-linecap:butt;stroke-linejoin:round;}</style>
 </defs>
 <g id="figure_1">
  <g id="patch_1">
   <path d="M 0 345.6 
L 460.8 345.6 
L 460.8 0 
L 0 0 
z
" style="fill:#ffffff;"/>
  </g>
  <g id="axes_1">
   <g id="patch_2">
    <path d="M 57.6 119.740235 
L 414.72 119.740235 
L 414.72 41.472 
L 57.6 41.472 
z
" style="fill:#ffffff;"/>
   </g>
   <g id="matplotlib.axis_1">
    <g id="xtick_1">
     <g id="line2d_1">
      <defs>
       <path d="M 0 0 
L 0 -3.5 
" id="m8d47e06f72" style="stroke:#000000;stroke-width:0.8;"/>
      </defs>
      <g>
       <use style="stroke:#000000;stroke-width:0.8;" x="126.860577" xlink:href="#m8d47e06f72" y="119.740235"/>
      </g>
     </g>
     <g id="text_1">
      <!-- day1 -->
      <g transform="translate(114.48167 130.838673)scale(0.1 -0.1)">
       <defs>
        <path d="M 2906 2969 
L 2906 4863 
L 3481 4863 
L 3481 0 
L 2906 0 
L 2906 525 
Q 2725 213 2448 61 
Q 2172 -91 1784 -91 
Q 1150 -91 751 415 
Q 353 922 353 1747 
Q 353 2572 751 3078 
Q 1150 3584 1784 3584 
Q 2172 3584 2448 3432 
Q 2725 3281 2906 2969 
z
M 947 1747 
Q 947 1113 1208 752 
Q 1469 391 1925 391 
Q 2381 391 2643 752 
Q 2906 1113 2906 1747 
Q 2906 2381 2643 2742 
Q 2381 3103 1925 3103 
Q 1469 3103 1208 2742 
Q 947 2381 947 1747 
z
" id="DejaVuSans-64" transform="scale(0.015625)"/>
        <path d="M 2194 1759 
Q 1497 1759 1228 1600 
Q 959 1441 959 1056 
Q 959 750 1161 570 
Q 1363 391 1709 391 
Q 2188 391 2477 730 
Q 2766 1069 2766 1631 
L 2766 1759 
L 2194 1759 
z
M 3341 1997 
L 3341 0 
L 2766 0 
L 2766 531 
Q 2569 213 2275 61 
Q 1981 -91 1556 -91 
Q 1019 -91 701 211 
Q 384 513 384 1019 
Q 384 1609 779 1909 
Q 1175 2209 1959 2209 
L 2766 2209 
L 2766 2266 
Q 2766 2663 2505 2880 
Q 2244 3097 1772 3097 
Q 1472 3097 1187 3025 
Q 903 2953 641 2809 
L 641 3341 
Q 956 3463 1253 3523 
Q 1550 3584 1831 3584 
Q 2591 3584 2966 3190 
Q 3341 2797 3341 1997 
z
" id="DejaVuSans-61" transform="scale(0.015625)"/>
        <path d="M 2059 -325 
Q 1816 -950 1584 -1140 
Q 1353 -1331 966 -1331 
L 506 -1331 
L 506 -850 
L 844 -850 
Q 1081 -850 1212 -737 
Q 1344 -625 1503 -206 
L 1606 56 
L 191 3500 
L 800 3500 
L 1894 763 
L 2988 3500 
L 3597 3500 
L 2059 -325 
z
" id="DejaVuSans-79" transform="scale(0.015625)"/>
        <path d="M 794 531 
L 1825 531 
L 1825 4091 
L 703 3866 
L 703 4441 
L 1819 4666 
L 2450 4666 
L 2450 531 
L 3481 531 
L 3481 0 
L 794 0 
L 794 531 
z
" id="DejaVuSans-31" transform="scale(0.015625)"/>
       </defs>
       <use xlink:href="#DejaVuSans-64"/>
       <use x="63.476562" xlink:href="#DejaVuSans-61"/>
       <use x="124.755859" xlink:href="#DejaVuSans-79"/>
       <use x="183.935547" xlink:href="#DejaVuSans-31"/>
      </g>
     </g>
    </g>
    <g id="xtick_2">
     <g id="line2d_2">
      <g>
       <use style="stroke:#000000;stroke-width:0.8;" x="208.094729" xlink:href="#m8d47e06f72" y="119.740235"/>
      </g>
     </g>
     <g id="text_2">
      <!-- day2 -->
      <g transform="translate(195.715822 130.838673)scale(0.1 -0.1)">
       <defs>
        <path d="M 1228 531 
L 3431 531 
L 3431 0 
L 469 0 
L 469 531 
Q 828 903 1448 1529 
Q 2069 2156 2228 2338 
Q 2531 2678 2651 2914 
Q 2772 3150 2772 3378 
Q 2772 3750 2511 3984 
Q 2250 4219 1831 4219 
Q 1534 4219 1204 4116 
Q 875 4013 500 3803 
L 500 4441 
Q 881 4594 1212 4672 
Q 1544 4750 1819 4750 
Q 2544 4750 2975 4387 
Q 3406 4025 3406 3419 
Q 3406 3131 3298 2873 
Q 3191 2616 2906 2266 
Q 2828 2175 2409 1742 
Q 1991 1309 1228 531 
z
" id="DejaVuSans-32" transform="scale(0.015625)"/>
       </defs>
       <use xlink:href="#DejaVuSans-64"/>
       <use x="63.476562" xlink:href="#DejaVuSans-61"/>
       <use x="124.755859" xlink:href="#DejaVuSans-79"/>
       <use x="183.935547" xlink:href="#DejaVuSans-32"/>
      </g>
     </g>
    </g>
    <g id="xtick_3">
     <g id="line2d_3">
      <g>
       <use style="stroke:#000000;stroke-width:0.8;" x="289.328881" xlink:href="#m8d47e06f72" y="119.740235"/>
      </g>
     </g>
     <g id="text_3">
      <!-- day3 -->
      <g transform="translate(276.949975 130.838673)scale(0.1 -0.1)">
       <defs>
        <path d="M 2597 2516 
Q 3050 2419 3304 2112 
Q 3559 1806 3559 1356 
Q 3559 666 3084 287 
Q 2609 -91 1734 -91 
Q 1441 -91 1130 -33 
Q 819 25 488 141 
L 488 750 
Q 750 597 1062 519 
Q 1375 441 1716 441 
Q 2309 441 2620 675 
Q 2931 909 2931 1356 
Q 2931 1769 2642 2001 
Q 2353 2234 1838 2234 
L 1294 2234 
L 1294 2753 
L 1863 2753 
Q 2328 2753 2575 2939 
Q 2822 3125 2822 3475 
Q 2822 3834 2567 4026 
Q 2313 4219 1838 4219 
Q 1578 4219 1281 4162 
Q 984 4106 628 3988 
L 628 4550 
Q 988 4650 1302 4700 
Q 1616 4750 1894 4750 
Q 2613 4750 3031 4423 
Q 3450 4097 3450 3541 
Q 3450 3153 3228 2886 
Q 3006 2619 2597 2516 
z
" id="DejaVuSans-33" transform="scale(0.015625)"/>
       </defs>
       <use xlink:href="#DejaVuSans-64"/>
       <use x="63.476562" xlink:href="#DejaVuSans-61"/>
       <use x="124.755859" xlink:href="#DejaVuSans-79"/>
       <use x="183.935547" xlink:href="#DejaVuSans-33"/>
      </g>
     </g>
    </g>
    <g id="xtick_4">
     <g id="line2d_4">
      <g>
       <use style="stroke:#000000;stroke-width:0.8;" x="370.563033" xlink:href="#m8d47e06f72" y="119.740235"/>
      </g>
     </g>
     <g id="text_4">
      <!-- day4 -->
      <g transform="translate(358.184127 130.838673)scale(0.1 -0.1)">
       <defs>
        <path d="M 2419 4116 
L 825 1625 
L 2419 1625 
L 2419 4116 
z
M 2253 4666 
L 3047 4666 
L 3047 1625 
L 3713 1625 
L 3713 1100 
L 3047 1100 
L 3047 0 
L 2419 0 
L 2419 1100 
L 313 1100 
L 313 1709 
L 2253 4666 
z
" id="DejaVuSans-34" transform="scale(0.015625)"/>
       </defs>
       <use xlink:href="#DejaVuSans-64"/>
       <use x="63.476562" xlink:href="#DejaVuSans-61"/>
       <use x="124.755859" xlink:href="#DejaVuSans-79"/>
       <use x="183.935547" xlink:href="#DejaVuSans-34"/>
      </g>
     </g>
    </g>
   </g>
   <g id="matplotlib.axis_2">
    <g id="ytick_1">
     <g id="line2d_5">
      <path clip-path="url(#p2dd14d7e5c)" d="M 57.6 119.740235 
L 414.72 119.740235 
" style="fill:none;stroke:#b0b0b0;stroke-dasharray:0.8,1.32;stroke-dashoffset:0;stroke-width:0.8;"/>
     </g>
     <g id="line2d_6">
      <defs>
       <path d="M 0 0 
L 3.5 0 
" id="m1d089c526f" style="stroke:#000000;stroke-width:0.8;"/>
      </defs>
      <g>
       <use style="stroke:#000000;stroke-width:0.8;" x="57.6" xlink:href="#m1d089c526f" y="119.740235"/>
      </g>
     </g>
     <g id="text_5">
      <!-- 0.0 -->
      <g transform="translate(38.196875 123.539454)scale(0.1 -0.1)">
       <defs>
        <path d="M 2034 4250 
Q 1547 4250 1301 3770 
Q 1056 3291 1056 2328 
Q 1056 1369 1301 889 
Q 1547 409 2034 409 
Q 2525 409 2770 889 
Q 3016 1369 3016 2328 
Q 3016 3291 2770 3770 
Q 2525 4250 2034 4250 
z
M 2034 4750 
Q 2819 4750 3233 4129 
Q 3647 3509 3647 2328 
Q 3647 1150 3233 529 
Q 2819 -91 2034 -91 
Q 1250 -91 836 529 
Q 422 1150 422 2328 
Q 422 3509 836 4129 
Q 1250 4750 2034 4750 
z
" id="DejaVuSans-30" transform="scale(0.015625)"/>
        <path d="M 684 794 
L 1344 794 
L 1344 0 
L 684 0 
L 684 794 
z
" id="DejaVuSans-2e" transform="scale(0.015625)"/>
       </defs>
       <use xlink:href="#DejaVuSans-30"/>
       <use x="63.623047" xlink:href="#DejaVuSans-2e"/>
       <use x="95.410156" xlink:href="#DejaVuSans-30"/>
      </g>
     </g>
    </g>
    <g id="ytick_2">
     <g id="line2d_7">
      <path clip-path="url(#p2dd14d7e5c)" d="M 57.6 96.259765 
L 414.72 96.259765 
" style="fill:none;stroke:#b0b0b0;stroke-dasharray:0.8,1.32;stroke-dashoffset:0;stroke-width:0.8;"/>
     </g>
     <g id="line2d_8">
      <g>
       <use style="stroke:#000000;stroke-width:0.8;" x="57.6" xlink:href="#m1d089c526f" y="96.259765"/>
      </g>
     </g>
     <g id="text_6">
      <!-- 0.3 -->
      <g transform="translate(38.196875 100.058983)scale(0.1 -0.1)">
       <use xlink:href="#DejaVuSans-30"/>
       <use x="63.623047" xlink:href="#DejaVuSans-2e"/>
       <use x="95.410156" xlink:href="#DejaVuSans-33"/>
      </g>
     </g>
    </g>
    <g id="ytick_3">
     <g id="line2d_9">
      <path clip-path="url(#p2dd14d7e5c)" d="M 57.6 72.779294 
L 414.72 72.779294 
" style="fill:none;stroke:#b0b0b0;stroke-dasharray:0.8,1.32;stroke-dashoffset:0;stroke-width:0.8;"/>
     </g>
     <g id="line2d_10">
      <g>
       <use style="stroke:#000000;stroke-width:0.8;" x="57.6" xlink:href="#m1d089c526f" y="72.779294"/>
      </g>
     </g>
     <g id="text_7">
      <!-- 0.6 -->
      <g transform="translate(38.196875 76.578513)scale(0.1 -0.1)">
       <defs>
        <path d="M 2113 2584 
Q 1688 2584 1439 2293 
Q 1191 2003 1191 1497 
Q 1191 994 1439 701 
Q 1688 409 2113 409 
Q 2538 409 2786 701 
Q 3034 994 3034 1497 
Q 3034 2003 2786 2293 
Q 2538 2584 2113 2584 
z
M 3366 4563 
L 3366 3988 
Q 3128 4100 2886 4159 
Q 2644 4219 2406 4219 
Q 1781 4219 1451 3797 
Q 1122 3375 1075 2522 
Q 1259 2794 1537 2939 
Q 1816 3084 2150 3084 
Q 2853 3084 3261 2657 
Q 3669 2231 3669 1497 
Q 3669 778 3244 343 
Q 2819 -91 2113 -91 
Q 1303 -91 875 529 
Q 447 1150 447 2328 
Q 447 3434 972 4092 
Q 1497 4750 2381 4750 
Q 2619 4750 2861 4703 
Q 3103 4656 3366 4563 
z
" id="DejaVuSans-36" transform="scale(0.015625)"/>
       </defs>
       <use xlink:href="#DejaVuSans-30"/>
       <use x="63.623047" xlink:href="#DejaVuSans-2e"/>
       <use x="95.410156" xlink:href="#DejaVuSans-36"/>
      </g>
     </g>
    </g>
    <g id="ytick_4">
     <g id="line2d_11">
      <path clip-path="url(#p2dd14d7e5c)" d="M 57.6 49.298824 
L 414.72 49.298824 
" style="fill:none;stroke:#b0b0b0;stroke-dasharray:0.8,1.32;stroke-dashoffset:0;stroke-width:0.8;"/>
     </g>
     <g id="line2d_12">
      <g>
       <use style="stroke:#000000;stroke-width:0.8;" x="57.6" xlink:href="#m1d089c526f" y="49.298824"/>
      </g>
     </g>
     <g id="text_8">
      <!-- 0.9 -->
      <g transform="translate(38.196875 53.098042)scale(0.1 -0.1)">
       <defs>
        <path d="M 703 97 
L 703 672 
Q 941 559 1184 500 
Q 1428 441 1663 441 
Q 2288 441 2617 861 
Q 2947 1281 2994 2138 
Q 2813 1869 2534 1725 
Q 2256 1581 1919 1581 
Q 1219 1581 811 2004 
Q 403 2428 403 3163 
Q 403 3881 828 4315 
Q 1253 4750 1959 4750 
Q 2769 4750 3195 4129 
Q 3622 3509 3622 2328 
Q 3622 1225 3098 567 
Q 2575 -91 1691 -91 
Q 1453 -91 1209 -44 
Q 966 3 703 97 
z
M 1959 2075 
Q 2384 2075 2632 2365 
Q 2881 2656 2881 3163 
Q 2881 3666 2632 3958 
Q 2384 4250 1959 4250 
Q 1534 4250 1286 3958 
Q 1038 3666 1038 3163 
Q 1038 2656 1286 2365 
Q 1534 2075 1959 2075 
z
" id="DejaVuSans-39" transform="scale(0.015625)"/>
       </defs>
       <use xlink:href="#DejaVuSans-30"/>
       <use x="63.623047" xlink:href="#DejaVuSans-2e"/>
       <use x="95.410156" xlink:href="#DejaVuSans-39"/>
      </g>
     </g>
    </g>
   </g>
   <g id="line2d_13">
    <path clip-path="url(#p2dd14d7e5c)" d="M 73.832727 116.39087 
L 74.11479 117.082929 
L 74.396853 117.1469 
L 74.678916 117.475729 
L 74.960979 117.273226 
L 75.243042 117.360624 
L 75.525105 117.855279 
L 76.371295 117.86253 
L 76.653358 117.747835 
L 77.217484 118.443463 
L 77.499547 118.181456 
L 78.345736 118.349051 
L 78.627799 118.631298 
L 78.909862 118.517964 
L 79.191925 118.547887 
L 79.473988 118.807394 
L 79.756051 118.742695 
L 80.038114 118.854526 
L 80.320177 118.809425 
L 80.60224 118.588769 
L 81.166366 118.944796 
L 82.012555 118.804118 
L 82.576681 119.11365 
L 82.858744 118.928537 
L 83.140807 118.920226 
L 83.42287 119.10394 
L 83.704933 118.863562 
L 83.986996 119.115911 
L 84.269059 119.024388 
L 84.551122 119.232715 
L 84.833185 118.977987 
L 85.115248 118.956272 
L 85.397311 119.126726 
L 85.679374 118.988791 
L 85.961437 119.188032 
L 86.243501 119.080015 
L 86.525564 119.278373 
L 86.807627 119.207101 
L 87.08969 118.982627 
L 87.371753 119.154699 
L 88.782068 119.253664 
L 89.628257 119.182245 
L 89.91032 118.967807 
L 90.192383 119.264376 
L 90.474446 119.200626 
L 90.756509 119.296362 
L 91.602698 119.155938 
L 91.884761 119.331414 
L 92.73095 119.066139 
L 94.141265 119.102462 
L 94.423328 119.195634 
L 94.705391 118.772176 
L 95.269517 118.91548 
L 95.55158 118.754441 
L 95.833643 118.839924 
L 96.39777 118.690807 
L 96.679833 118.726541 
L 96.961896 118.901978 
L 97.243959 118.458797 
L 97.526022 118.523779 
L 97.808085 118.035088 
L 98.090148 118.583501 
L 98.372211 118.279589 
L 98.654274 118.469459 
L 98.936337 118.505897 
L 99.2184 118.074334 
L 99.500463 118.269478 
L 99.782526 117.674049 
L 100.064589 118.154793 
L 100.346652 118.044259 
L 100.628715 117.760909 
L 100.910778 118.483868 
L 101.192841 117.306275 
L 101.474904 118.063025 
L 102.03903 117.703896 
L 102.321093 117.963209 
L 102.603156 116.510846 
L 102.885219 117.577046 
L 103.167282 117.830252 
L 103.449345 116.970185 
L 103.731408 117.561463 
L 104.013471 116.352003 
L 104.295534 117.383619 
L 104.577597 116.872309 
L 104.85966 117.111109 
L 105.141723 117.071454 
L 105.423786 116.844838 
L 105.705849 117.080757 
L 105.987912 117.50777 
L 106.269976 116.34526 
L 106.552039 116.125934 
L 106.834102 117.192754 
L 107.116165 117.45949 
L 107.398228 117.133369 
L 107.962354 105.352233 
L 108.244417 105.007159 
L 108.808543 104.029835 
L 109.090606 104.092291 
L 109.372669 103.687898 
L 109.654732 103.537333 
L 109.936795 103.217172 
L 110.500921 102.163692 
L 110.782984 102.012949 
L 111.34711 83.219515 
L 111.911236 77.24902 
L 112.193299 75.568792 
L 112.475362 75.454251 
L 112.757425 76.264304 
L 113.321551 69.829924 
L 113.603614 69.513756 
L 113.885677 67.714536 
L 114.16774 66.935305 
L 114.449803 66.822362 
L 114.731866 68.876391 
L 115.013929 69.539736 
L 115.295992 71.645684 
L 115.578055 69.209085 
L 115.860118 70.033877 
L 116.142182 71.729166 
L 116.424245 71.339253 
L 116.706308 69.30015 
L 116.988371 71.876021 
L 117.270434 72.15265 
L 117.552497 73.254011 
L 117.83456 73.361392 
L 118.116623 74.663951 
L 118.398686 72.516528 
L 118.680749 71.819569 
L 118.962812 72.523596 
L 119.244875 73.539494 
L 119.526938 75.171634 
L 119.809001 73.354047 
L 120.091064 72.789055 
L 120.65519 76.666497 
L 120.937253 79.068515 
L 121.219316 78.986228 
L 121.501379 78.407083 
L 121.783442 78.833582 
L 122.065505 80.547754 
L 122.347568 78.64127 
L 122.629631 80.714956 
L 123.193757 82.869723 
L 123.47582 82.334194 
L 123.757883 83.368349 
L 124.039946 83.635315 
L 124.604072 84.97064 
L 124.886135 85.172793 
L 125.168198 84.892028 
L 125.450261 83.731824 
L 125.732324 83.725617 
L 126.014387 82.6355 
L 126.296451 84.743884 
L 126.578514 83.042098 
L 127.14264 86.02029 
L 127.424703 85.511076 
L 127.706766 84.488398 
L 127.988829 84.387126 
L 128.270892 83.786926 
L 128.552955 83.959413 
L 128.835018 84.644223 
L 129.117081 83.064502 
L 129.399144 83.731384 
L 129.681207 86.067741 
L 129.96327 85.717874 
L 130.245333 83.357252 
L 130.527396 82.592601 
L 131.091522 80.541558 
L 131.373585 79.982958 
L 131.655648 73.26755 
L 132.219774 75.57103 
L 132.501837 78.401052 
L 132.7839 78.368188 
L 133.065963 74.355503 
L 133.348026 78.068557 
L 133.630089 76.547296 
L 133.912152 76.131833 
L 134.194215 78.765037 
L 134.476278 77.605457 
L 135.040404 84.15579 
L 135.322467 86.376226 
L 135.60453 87.152787 
L 135.886593 85.816478 
L 136.168657 86.981886 
L 136.45072 87.529529 
L 136.732783 87.572577 
L 137.014846 89.784738 
L 137.296909 90.066461 
L 137.578972 91.486349 
L 137.861035 91.445141 
L 138.143098 94.828645 
L 138.425161 96.484256 
L 138.707224 96.193298 
L 138.989287 96.341637 
L 139.27135 96.078475 
L 139.553413 96.735611 
L 139.835476 96.675049 
L 140.117539 96.401024 
L 140.681665 96.544475 
L 140.963728 96.107166 
L 141.809917 92.818853 
L 142.09198 90.571841 
L 142.656106 82.898468 
L 142.938169 82.619164 
L 143.220232 84.743648 
L 143.502295 84.260817 
L 144.066421 82.607628 
L 144.348484 80.430826 
L 144.630547 79.920501 
L 144.91261 82.283434 
L 145.194673 80.819715 
L 145.476736 81.504629 
L 145.758799 81.494039 
L 146.322926 83.376319 
L 146.604989 82.582698 
L 146.887052 82.979877 
L 147.169115 82.389192 
L 147.451178 82.875811 
L 147.733241 81.526889 
L 148.015304 83.101141 
L 148.297367 81.052402 
L 148.57943 81.888768 
L 148.861493 81.428923 
L 149.143556 83.96745 
L 149.425619 84.527303 
L 149.707682 83.590156 
L 149.989745 81.804556 
L 150.271808 80.937605 
L 150.553871 83.14151 
L 150.835934 84.432837 
L 151.117997 87.143758 
L 151.40006 86.57736 
L 151.964186 82.731733 
L 152.246249 84.928526 
L 152.528312 86.035671 
L 153.092438 89.607726 
L 153.374501 89.573001 
L 153.656564 89.38146 
L 153.938627 92.148012 
L 154.502753 112.939931 
L 154.784816 115.594263 
L 155.066879 116.998803 
L 155.913068 117.440767 
L 156.195132 117.488984 
L 156.759258 117.883489 
L 157.323384 117.946066 
L 157.605447 117.633136 
L 158.169573 118.397667 
L 158.733699 118.268909 
L 159.015762 118.544645 
L 159.297825 118.625554 
L 159.579888 118.55327 
L 159.861951 118.844328 
L 160.144014 118.582073 
L 160.426077 118.777097 
L 160.70814 118.729922 
L 160.990203 119.011955 
L 161.272266 118.849908 
L 161.836392 118.874492 
L 162.400518 118.759995 
L 162.682581 118.922577 
L 162.964644 118.862076 
L 163.246707 119.070729 
L 163.52877 118.807042 
L 164.092896 118.826964 
L 164.657022 119.067702 
L 165.503211 119.141779 
L 166.349401 118.986882 
L 166.631464 118.925229 
L 166.913527 119.262654 
L 167.19559 119.231069 
L 167.477653 119.057666 
L 168.041779 119.224621 
L 168.323842 119.371488 
L 168.605905 119.15099 
L 169.170031 119.238008 
L 170.01622 119.229976 
L 170.580346 119.278093 
L 170.862409 119.177225 
L 171.144472 119.294472 
L 171.426535 119.202357 
L 171.708598 119.31753 
L 172.554787 119.204845 
L 172.83685 119.277919 
L 173.118913 119.120863 
L 173.683039 119.11901 
L 174.247165 119.076784 
L 174.529228 119.143109 
L 175.65748 118.811227 
L 175.939543 118.91873 
L 176.221607 118.704335 
L 176.50367 118.950572 
L 177.349859 118.585736 
L 177.631922 118.21697 
L 178.196048 118.647953 
L 178.478111 118.536447 
L 178.760174 118.243134 
L 179.042237 118.120602 
L 179.3243 118.170789 
L 179.606363 118.380473 
L 179.888426 117.710101 
L 180.734615 117.845489 
L 181.016678 117.590349 
L 181.298741 118.205533 
L 181.862867 117.414981 
L 182.14493 117.993523 
L 182.426993 117.536753 
L 182.709056 117.921371 
L 182.991119 117.746688 
L 183.273182 117.774481 
L 183.555245 117.473081 
L 183.837308 117.461521 
L 184.119371 117.851331 
L 184.401434 117.781547 
L 184.683497 117.178454 
L 184.96556 117.49682 
L 185.247623 117.613016 
L 185.529686 118.004349 
L 186.375876 117.839037 
L 186.657939 117.200925 
L 186.940002 117.449845 
L 187.222065 116.371672 
L 187.504128 117.590287 
L 187.786191 117.56048 
L 188.068254 117.067196 
L 188.350317 116.935615 
L 188.63238 117.355891 
L 189.196506 107.354755 
L 189.478569 105.514185 
L 189.760632 105.075022 
L 190.042695 104.180516 
L 190.324758 105.154014 
L 190.606821 104.248319 
L 190.888884 102.667978 
L 191.170947 103.633266 
L 191.45301 103.97081 
L 191.735073 105.231701 
L 192.017136 103.702409 
L 192.863325 77.61982 
L 193.427451 73.039965 
L 193.709514 74.20325 
L 193.991577 76.021516 
L 194.27364 75.070566 
L 194.837766 72.036091 
L 195.119829 66.556006 
L 195.401892 68.081893 
L 195.683955 67.563143 
L 195.966018 66.749592 
L 196.248082 67.78348 
L 196.530145 72.296502 
L 196.812208 71.889579 
L 197.094271 72.670809 
L 197.376334 73.120063 
L 197.658397 71.490444 
L 197.94046 71.749738 
L 198.222523 70.812359 
L 198.504586 71.015013 
L 199.632838 75.600514 
L 199.914901 76.695982 
L 200.196964 75.895451 
L 200.76109 77.828238 
L 201.043153 78.097163 
L 201.325216 76.604126 
L 201.607279 78.536617 
L 201.889342 82.358749 
L 202.171405 82.749498 
L 202.453468 84.82716 
L 202.735531 85.923348 
L 203.017594 85.291342 
L 203.299657 85.04237 
L 203.58172 85.745779 
L 203.863783 84.453509 
L 204.145846 86.23289 
L 204.427909 86.564215 
L 204.709972 84.655165 
L 204.992035 85.329548 
L 205.274098 84.933318 
L 205.556161 86.689711 
L 206.120287 84.643694 
L 206.402351 84.69327 
L 206.684414 85.336227 
L 206.966477 85.635283 
L 207.812666 80.789705 
L 208.094729 83.228347 
L 208.376792 83.774408 
L 208.658855 79.114017 
L 209.222981 82.947957 
L 209.505044 82.645894 
L 209.787107 80.639456 
L 210.06917 81.305117 
L 210.351233 82.784595 
L 210.633296 82.910702 
L 210.915359 81.680946 
L 211.197422 79.468391 
L 211.479485 78.629668 
L 211.761548 81.777347 
L 212.043611 79.537099 
L 212.325674 79.08919 
L 212.607737 82.374677 
L 212.8898 79.124209 
L 213.453926 83.204728 
L 213.735989 81.056881 
L 214.018052 80.261903 
L 214.300115 76.471021 
L 214.582178 79.480939 
L 214.864241 79.817475 
L 215.428367 77.258005 
L 215.992493 82.502261 
L 216.274557 86.709143 
L 216.55662 87.626577 
L 216.838683 89.687576 
L 217.120746 89.347101 
L 217.402809 89.590316 
L 217.684872 85.847813 
L 217.966935 86.450106 
L 218.248998 89.092924 
L 218.531061 88.754959 
L 218.813124 88.028644 
L 219.659313 98.75528 
L 219.941376 97.072031 
L 220.223439 97.318953 
L 220.505502 98.270817 
L 221.069628 98.436737 
L 221.351691 97.717161 
L 221.633754 95.82707 
L 221.915817 96.328222 
L 222.19788 94.723908 
L 222.479943 94.599463 
L 222.762006 93.435216 
L 223.044069 90.846841 
L 223.326132 90.647021 
L 223.608195 89.974938 
L 223.890258 84.413733 
L 224.172321 81.968421 
L 224.454384 82.854273 
L 224.736447 85.066821 
L 225.01851 85.047505 
L 225.582636 82.826839 
L 225.864699 80.518602 
L 226.428826 83.882758 
L 226.710889 81.994277 
L 226.992952 81.418812 
L 227.275015 82.287602 
L 227.557078 82.277108 
L 227.839141 82.75833 
L 228.121204 81.483124 
L 228.403267 82.51292 
L 228.68533 81.468078 
L 228.967393 83.033796 
L 229.249456 82.564252 
L 229.531519 81.071942 
L 229.813582 80.591391 
L 230.377708 82.657012 
L 230.941834 82.059393 
L 231.223897 82.480235 
L 231.50596 82.170585 
L 231.788023 82.648541 
L 232.070086 83.572334 
L 232.352149 83.666529 
L 232.634212 81.665436 
L 232.916275 77.325503 
L 233.198338 77.984191 
L 233.480401 78.268741 
L 234.32659 83.333829 
L 234.608653 83.3813 
L 234.890716 87.150825 
L 235.172779 88.739843 
L 235.736905 110.696119 
L 236.018968 114.218228 
L 236.301032 116.267972 
L 236.865158 116.658246 
L 237.147221 117.357663 
L 237.429284 117.427806 
L 237.711347 117.195085 
L 237.99341 117.659596 
L 238.275473 117.341262 
L 238.557536 117.552384 
L 238.839599 117.956639 
L 239.403725 117.72544 
L 239.967851 118.129439 
L 240.249914 118.091682 
L 240.531977 118.253321 
L 240.81404 118.090857 
L 241.096103 118.139331 
L 241.378166 118.37261 
L 241.660229 117.929462 
L 241.942292 118.635493 
L 242.224355 118.807884 
L 242.506418 118.547518 
L 243.352607 118.739236 
L 243.63467 118.49786 
L 244.480859 118.808715 
L 244.762922 119.015383 
L 245.044985 118.801837 
L 245.327048 119.004832 
L 245.891174 118.603876 
L 246.173238 118.969536 
L 248.147679 119.059536 
L 248.711805 119.366579 
L 248.993868 119.092814 
L 249.275931 119.107363 
L 249.557994 119.338557 
L 249.840057 119.051705 
L 250.686246 119.360421 
L 250.968309 119.261982 
L 251.250372 119.349653 
L 252.096561 119.311967 
L 252.660687 119.364938 
L 252.94275 119.265598 
L 253.788939 119.295453 
L 254.353065 119.141374 
L 254.635128 119.266624 
L 255.481317 119.283243 
L 255.76338 119.02521 
L 256.327507 119.211014 
L 257.173696 119.035333 
L 257.455759 119.061903 
L 257.737822 118.763049 
L 258.301948 118.895908 
L 258.866074 118.902094 
L 259.148137 118.680608 
L 259.712263 118.69408 
L 260.276389 118.346485 
L 260.558452 118.706067 
L 261.122578 118.463391 
L 261.686704 118.411164 
L 262.25083 118.256625 
L 262.532893 118.405447 
L 262.814956 118.38553 
L 263.097019 118.221176 
L 263.379082 118.312373 
L 263.661145 118.24111 
L 263.943208 118.463543 
L 264.507334 118.324622 
L 264.789397 118.169163 
L 265.07146 117.722907 
L 265.353523 118.262554 
L 265.917649 118.09974 
L 266.199713 117.107052 
L 266.481776 118.093344 
L 266.763839 118.419796 
L 267.045902 118.061083 
L 267.327965 118.1579 
L 267.610028 117.950067 
L 268.174154 118.436133 
L 268.456217 117.928213 
L 268.73828 118.2734 
L 269.020343 118.289193 
L 269.302406 117.774328 
L 269.866532 118.130369 
L 270.430658 107.837226 
L 271.276847 104.886509 
L 271.55891 105.673153 
L 271.840973 105.661269 
L 272.123036 105.028595 
L 272.405099 106.012151 
L 272.687162 104.962582 
L 272.969225 104.869639 
L 273.251288 104.147043 
L 273.815414 76.330016 
L 274.097477 73.989815 
L 274.661603 72.161516 
L 274.943666 69.900095 
L 275.225729 69.596689 
L 275.507792 71.270943 
L 275.789855 70.125082 
L 276.071918 68.229776 
L 276.353982 65.467906 
L 276.918108 67.549584 
L 277.200171 69.905564 
L 277.482234 65.461319 
L 277.764297 68.869075 
L 278.04636 68.782542 
L 278.328423 69.010776 
L 278.610486 70.874076 
L 278.892549 68.161573 
L 279.174612 67.655141 
L 279.456675 66.282956 
L 279.738738 64.143923 
L 280.020801 54.753383 
L 280.302864 68.635294 
L 280.584927 68.595787 
L 280.86699 70.047383 
L 281.149053 69.096351 
L 281.431116 71.205066 
L 281.713179 71.365251 
L 281.995242 71.706185 
L 282.277305 72.458779 
L 282.559368 70.012206 
L 283.123494 76.929526 
L 283.405557 74.907123 
L 283.969683 81.516411 
L 284.251746 80.73012 
L 284.533809 81.493185 
L 284.815872 79.750664 
L 285.097935 79.870462 
L 285.379998 83.016372 
L 285.662061 83.783109 
L 285.944124 86.551574 
L 286.226188 85.612766 
L 286.508251 86.070481 
L 286.790314 84.219517 
L 287.072377 84.398556 
L 287.35444 84.037888 
L 287.636503 83.452544 
L 287.918566 83.787366 
L 288.200629 85.225103 
L 288.482692 83.519059 
L 289.046818 84.756888 
L 289.328881 84.701028 
L 289.893007 82.973102 
L 290.739196 83.265573 
L 291.021259 82.570448 
L 291.303322 83.292739 
L 291.585385 83.679682 
L 291.867448 83.327042 
L 292.149511 82.671842 
L 292.431574 83.805301 
L 292.9957 83.281067 
L 293.277763 83.39507 
L 293.559826 82.244276 
L 293.841889 83.429744 
L 294.123952 85.112597 
L 294.406015 85.266512 
L 294.688078 84.356306 
L 294.970141 85.452007 
L 295.252204 82.842743 
L 295.534267 82.271349 
L 295.81633 84.582959 
L 296.098393 84.53829 
L 296.380457 83.879082 
L 296.66252 85.108621 
L 296.944583 85.668815 
L 297.226646 88.610781 
L 297.508709 87.513854 
L 297.790772 91.5689 
L 298.072835 89.928686 
L 298.354898 90.256292 
L 298.636961 90.327531 
L 298.919024 90.094095 
L 299.201087 90.098601 
L 299.48315 90.492934 
L 299.765213 91.359572 
L 300.047276 89.399787 
L 300.611402 111.966319 
L 300.893465 112.14392 
L 301.175528 110.543132 
L 302.021717 103.859588 
L 302.30378 102.920367 
L 302.867906 99.154832 
L 303.149969 96.735134 
L 303.432032 95.693094 
L 304.278221 90.62204 
L 304.560284 91.434862 
L 305.12441 85.999436 
L 305.406473 81.26367 
L 305.688536 83.017077 
L 305.970599 82.962418 
L 306.252663 82.050482 
L 306.534726 80.650491 
L 306.816789 78.244816 
L 307.098852 78.269609 
L 307.380915 80.359622 
L 307.662978 79.730602 
L 307.945041 80.008499 
L 308.227104 76.453476 
L 308.509167 76.615307 
L 308.79123 76.597346 
L 309.073293 78.041272 
L 309.355356 76.860646 
L 309.919482 79.329527 
L 310.201545 78.733386 
L 310.483608 80.444806 
L 311.047734 79.547473 
L 311.329797 79.470838 
L 311.893923 82.230602 
L 312.175986 83.129674 
L 312.458049 81.997111 
L 312.740112 78.85703 
L 313.022175 80.735098 
L 313.304238 81.117969 
L 313.586301 83.471878 
L 314.43249 77.429571 
L 314.714553 78.210212 
L 315.560742 82.639852 
L 315.842805 83.219273 
L 316.406932 87.476225 
L 316.971058 111.397977 
L 317.253121 114.963706 
L 317.535184 116.284812 
L 317.817247 116.601941 
L 318.381373 117.82094 
L 318.663436 117.744252 
L 319.227562 117.973345 
L 319.509625 118.231074 
L 319.791688 118.317163 
L 320.073751 118.117689 
L 320.355814 118.454675 
L 320.637877 118.45959 
L 320.91994 118.247178 
L 321.484066 118.519689 
L 321.766129 118.205019 
L 322.048192 118.779831 
L 322.330255 118.969533 
L 322.612318 118.808638 
L 322.894381 118.818921 
L 323.176444 118.948034 
L 323.74057 118.912491 
L 324.304696 118.957573 
L 324.586759 118.8213 
L 324.868822 119.0363 
L 325.150885 118.789353 
L 325.715011 119.156235 
L 326.561201 119.024616 
L 326.843264 119.250611 
L 327.40739 119.159878 
L 327.689453 119.13428 
L 327.971516 119.371818 
L 328.253579 119.13456 
L 328.535642 119.346712 
L 328.817705 119.28584 
L 329.099768 118.889715 
L 329.663894 119.282064 
L 330.22802 119.334085 
L 330.510083 119.187354 
L 330.792146 119.391338 
L 331.356272 119.280362 
L 331.920398 119.434958 
L 332.484524 119.289323 
L 336.71547 119.274927 
L 336.997533 119.166199 
L 337.279596 119.302196 
L 338.971974 119.112956 
L 339.254037 119.287275 
L 339.5361 118.999832 
L 340.100226 119.057822 
L 340.382289 118.915761 
L 340.946415 118.923498 
L 341.228478 118.734745 
L 341.510541 118.88107 
L 341.792604 118.749701 
L 342.074667 118.838589 
L 342.35673 118.052701 
L 342.638793 118.746428 
L 342.920856 118.532811 
L 343.202919 118.573562 
L 343.484982 118.779063 
L 343.767045 118.516905 
L 344.331171 118.549249 
L 344.613234 118.796516 
L 344.895297 118.519586 
L 345.17736 118.464787 
L 345.459423 118.021765 
L 345.741486 118.863176 
L 346.023549 118.616395 
L 346.305613 118.5445 
L 346.587676 118.347863 
L 346.869739 118.577757 
L 347.151802 118.409759 
L 347.433865 118.67642 
L 347.715928 118.501868 
L 348.280054 118.645537 
L 348.562117 116.90864 
L 348.84418 118.440605 
L 349.408306 118.45537 
L 349.690369 118.808823 
L 349.972432 117.998805 
L 350.254495 118.002208 
L 350.536558 118.692436 
L 350.818621 118.560088 
L 351.100684 118.635546 
L 351.66481 106.41521 
L 352.228936 102.883397 
L 352.510999 102.429373 
L 352.793062 104.155876 
L 353.075125 103.372023 
L 353.639251 104.316298 
L 353.921314 103.814002 
L 354.203377 104.863439 
L 354.48544 103.035469 
L 355.049566 76.91235 
L 355.331629 75.729571 
L 355.613692 70.49301 
L 355.895755 71.421834 
L 356.177818 70.002248 
L 356.741945 70.18163 
L 357.024008 69.830232 
L 357.306071 67.394499 
L 357.588134 68.244001 
L 357.870197 64.072035 
L 358.434323 66.060752 
L 358.716386 65.759369 
L 358.998449 68.382995 
L 359.280512 68.192751 
L 359.562575 68.661224 
L 359.844638 70.568439 
L 360.126701 71.491714 
L 360.690827 69.349547 
L 360.97289 69.394668 
L 361.254953 72.502881 
L 361.537016 72.694681 
L 361.819079 70.797068 
L 362.101142 71.230299 
L 362.383205 74.689852 
L 362.947331 73.032216 
L 363.229394 72.066586 
L 363.79352 73.730796 
L 364.075583 72.837313 
L 364.921772 80.286633 
L 365.203835 80.602054 
L 365.485898 83.26332 
L 365.767961 83.396993 
L 366.050024 83.964236 
L 366.332088 82.967647 
L 366.614151 86.258192 
L 367.178277 84.408935 
L 367.46034 84.366094 
L 367.742403 84.954527 
L 368.024466 86.058448 
L 368.306529 85.042606 
L 368.588592 86.512062 
L 368.870655 84.924996 
L 369.152718 85.120807 
L 369.716844 83.161469 
L 369.998907 81.424598 
L 370.28097 82.880364 
L 370.563033 85.132966 
L 370.845096 83.301902 
L 371.127159 84.169893 
L 371.409222 83.941359 
L 371.691285 83.104797 
L 371.973348 83.134767 
L 372.255411 80.561716 
L 372.537474 82.26856 
L 372.819537 82.573932 
L 373.1016 82.629664 
L 373.383663 83.139907 
L 373.665726 82.587166 
L 373.947789 82.76093 
L 374.229852 83.890791 
L 374.511915 82.275942 
L 374.793978 83.094246 
L 375.076041 84.476589 
L 375.358104 85.187851 
L 375.640167 84.182688 
L 375.92223 83.847607 
L 376.204293 84.625397 
L 376.486357 83.415883 
L 376.76842 81.649243 
L 377.050483 83.143873 
L 377.332546 83.517688 
L 377.614609 82.670164 
L 377.896672 83.805536 
L 378.178735 84.145655 
L 379.024924 86.441344 
L 379.306987 85.418336 
L 379.58905 88.382785 
L 379.871113 87.863815 
L 380.435239 87.301708 
L 380.717302 88.336678 
L 381.281428 86.167407 
L 381.563491 86.083416 
L 382.127617 94.911111 
L 382.40968 94.251031 
L 382.973806 94.493466 
L 383.255869 94.637575 
L 383.537932 94.989885 
L 383.819995 93.622015 
L 384.102058 94.63687 
L 384.384121 91.368014 
L 384.666184 91.862046 
L 384.948247 92.864264 
L 385.23031 90.596732 
L 385.794436 85.212013 
L 386.076499 83.947998 
L 386.358563 79.131782 
L 386.640626 78.703031 
L 386.922689 79.058373 
L 387.768878 74.322334 
L 388.050941 74.850463 
L 388.333004 73.954743 
L 388.615067 74.322371 
L 388.89713 73.818699 
L 389.461256 71.719193 
L 389.743319 69.821868 
L 390.025382 68.699841 
L 390.871571 69.650831 
L 391.153634 70.109249 
L 391.435697 71.21886 
L 391.71776 69.467173 
L 391.999823 70.410336 
L 392.281886 69.608514 
L 392.563949 71.07594 
L 392.846012 69.901089 
L 393.128075 71.164782 
L 393.410138 71.796978 
L 393.692201 72.905151 
L 393.974264 72.415332 
L 394.256327 73.887306 
L 394.53839 76.533496 
L 395.102516 74.620949 
L 395.384579 72.591657 
L 395.666642 71.518112 
L 395.948705 74.264538 
L 396.230769 75.425626 
L 396.512832 77.80846 
L 397.076958 80.135858 
L 397.359021 81.365368 
L 397.641084 83.855546 
L 398.20521 111.623449 
L 398.487273 114.822306 
L 398.487273 114.822306 
" style="fill:none;stroke:#545e75;stroke-linecap:square;stroke-opacity:0.7;stroke-width:1.5;"/>
   </g>
   <g id="patch_3">
    <path d="M 57.6 119.740235 
L 57.6 41.472 
" style="fill:none;stroke:#000000;stroke-linecap:square;stroke-linejoin:miter;stroke-width:0.8;"/>
   </g>
   <g id="patch_4">
    <path d="M 414.72 119.740235 
L 414.72 41.472 
" style="fill:none;stroke:#000000;stroke-linecap:square;stroke-linejoin:miter;stroke-width:0.8;"/>
   </g>
   <g id="patch_5">
    <path d="M 57.6 119.740235 
L 414.72 119.740235 
" style="fill:none;stroke:#000000;stroke-linecap:square;stroke-linejoin:miter;stroke-width:0.8;"/>
   </g>
   <g id="patch_6">
    <path d="M 57.6 41.472 
L 414.72 41.472 
" style="fill:none;stroke:#000000;stroke-linecap:square;stroke-linejoin:miter;stroke-width:0.8;"/>
   </g>
  </g>
  <g id="axes_2">
   <g id="patch_7">
    <path d="M 57.6 213.662118 
L 414.72 213.662118 
L 414.72 135.393882 
L 57.6 135.393882 
z
" style="fill:#ffffff;"/>
   </g>
   <g id="matplotlib.axis_3">
    <g id="xtick_5">
     <g id="line2d_14">
      <g>
       <use style="stroke:#000000;stroke-width:0.8;" x="126.917378" xlink:href="#m8d47e06f72" y="213.662118"/>
      </g>
     </g>
     <g id="text_9">
      <!-- day1 -->
      <g transform="translate(114.538471 224.760555)scale(0.1 -0.1)">
       <use xlink:href="#DejaVuSans-64"/>
       <use x="63.476562" xlink:href="#DejaVuSans-61"/>
       <use x="124.755859" xlink:href="#DejaVuSans-79"/>
       <use x="183.935547" xlink:href="#DejaVuSans-31"/>
      </g>
     </g>
    </g>
    <g id="xtick_6">
     <g id="line2d_15">
      <g>
       <use style="stroke:#000000;stroke-width:0.8;" x="208.22071" xlink:href="#m8d47e06f72" y="213.662118"/>
      </g>
     </g>
     <g id="text_10">
      <!-- day2 -->
      <g transform="translate(195.841804 224.760555)scale(0.1 -0.1)">
       <use xlink:href="#DejaVuSans-64"/>
       <use x="63.476562" xlink:href="#DejaVuSans-61"/>
       <use x="124.755859" xlink:href="#DejaVuSans-79"/>
       <use x="183.935547" xlink:href="#DejaVuSans-32"/>
      </g>
     </g>
    </g>
    <g id="xtick_7">
     <g id="line2d_16">
      <g>
       <use style="stroke:#000000;stroke-width:0.8;" x="289.524043" xlink:href="#m8d47e06f72" y="213.662118"/>
      </g>
     </g>
     <g id="text_11">
      <!-- day3 -->
      <g transform="translate(277.145137 224.760555)scale(0.1 -0.1)">
       <use xlink:href="#DejaVuSans-64"/>
       <use x="63.476562" xlink:href="#DejaVuSans-61"/>
       <use x="124.755859" xlink:href="#DejaVuSans-79"/>
       <use x="183.935547" xlink:href="#DejaVuSans-33"/>
      </g>
     </g>
    </g>
    <g id="xtick_8">
     <g id="line2d_17">
      <g>
       <use style="stroke:#000000;stroke-width:0.8;" x="370.827376" xlink:href="#m8d47e06f72" y="213.662118"/>
      </g>
     </g>
     <g id="text_12">
      <!-- day4 -->
      <g transform="translate(358.44847 224.760555)scale(0.1 -0.1)">
       <use xlink:href="#DejaVuSans-64"/>
       <use x="63.476562" xlink:href="#DejaVuSans-61"/>
       <use x="124.755859" xlink:href="#DejaVuSans-79"/>
       <use x="183.935547" xlink:href="#DejaVuSans-34"/>
      </g>
     </g>
    </g>
   </g>
   <g id="matplotlib.axis_4">
    <g id="ytick_5">
     <g id="line2d_18">
      <path clip-path="url(#pa4f5fba2f3)" d="M 57.6 210.104471 
L 414.72 210.104471 
" style="fill:none;stroke:#b0b0b0;stroke-dasharray:0.8,1.32;stroke-dashoffset:0;stroke-width:0.8;"/>
     </g>
     <g id="line2d_19">
      <g>
       <use style="stroke:#000000;stroke-width:0.8;" x="57.6" xlink:href="#m1d089c526f" y="210.104471"/>
      </g>
     </g>
     <g id="text_13">
      <!-- 0.0 -->
      <g transform="translate(38.196875 213.903689)scale(0.1 -0.1)">
       <use xlink:href="#DejaVuSans-30"/>
       <use x="63.623047" xlink:href="#DejaVuSans-2e"/>
       <use x="95.410156" xlink:href="#DejaVuSans-30"/>
      </g>
     </g>
    </g>
    <g id="ytick_6">
     <g id="line2d_20">
      <path clip-path="url(#pa4f5fba2f3)" d="M 57.6 189.160266 
L 414.72 189.160266 
" style="fill:none;stroke:#b0b0b0;stroke-dasharray:0.8,1.32;stroke-dashoffset:0;stroke-width:0.8;"/>
     </g>
     <g id="line2d_21">
      <g>
       <use style="stroke:#000000;stroke-width:0.8;" x="57.6" xlink:href="#m1d089c526f" y="189.160266"/>
      </g>
     </g>
     <g id="text_14">
      <!-- 0.4 -->
      <g transform="translate(38.196875 192.959485)scale(0.1 -0.1)">
       <use xlink:href="#DejaVuSans-30"/>
       <use x="63.623047" xlink:href="#DejaVuSans-2e"/>
       <use x="95.410156" xlink:href="#DejaVuSans-34"/>
      </g>
     </g>
    </g>
    <g id="ytick_7">
     <g id="line2d_22">
      <path clip-path="url(#pa4f5fba2f3)" d="M 57.6 168.216061 
L 414.72 168.216061 
" style="fill:none;stroke:#b0b0b0;stroke-dasharray:0.8,1.32;stroke-dashoffset:0;stroke-width:0.8;"/>
     </g>
     <g id="line2d_23">
      <g>
       <use style="stroke:#000000;stroke-width:0.8;" x="57.6" xlink:href="#m1d089c526f" y="168.216061"/>
      </g>
     </g>
     <g id="text_15">
      <!-- 0.8 -->
      <g transform="translate(38.196875 172.01528)scale(0.1 -0.1)">
       <defs>
        <path d="M 2034 2216 
Q 1584 2216 1326 1975 
Q 1069 1734 1069 1313 
Q 1069 891 1326 650 
Q 1584 409 2034 409 
Q 2484 409 2743 651 
Q 3003 894 3003 1313 
Q 3003 1734 2745 1975 
Q 2488 2216 2034 2216 
z
M 1403 2484 
Q 997 2584 770 2862 
Q 544 3141 544 3541 
Q 544 4100 942 4425 
Q 1341 4750 2034 4750 
Q 2731 4750 3128 4425 
Q 3525 4100 3525 3541 
Q 3525 3141 3298 2862 
Q 3072 2584 2669 2484 
Q 3125 2378 3379 2068 
Q 3634 1759 3634 1313 
Q 3634 634 3220 271 
Q 2806 -91 2034 -91 
Q 1263 -91 848 271 
Q 434 634 434 1313 
Q 434 1759 690 2068 
Q 947 2378 1403 2484 
z
M 1172 3481 
Q 1172 3119 1398 2916 
Q 1625 2713 2034 2713 
Q 2441 2713 2670 2916 
Q 2900 3119 2900 3481 
Q 2900 3844 2670 4047 
Q 2441 4250 2034 4250 
Q 1625 4250 1398 4047 
Q 1172 3844 1172 3481 
z
" id="DejaVuSans-38" transform="scale(0.015625)"/>
       </defs>
       <use xlink:href="#DejaVuSans-30"/>
       <use x="63.623047" xlink:href="#DejaVuSans-2e"/>
       <use x="95.410156" xlink:href="#DejaVuSans-38"/>
      </g>
     </g>
    </g>
    <g id="ytick_8">
     <g id="line2d_24">
      <path clip-path="url(#pa4f5fba2f3)" d="M 57.6 147.271857 
L 414.72 147.271857 
" style="fill:none;stroke:#b0b0b0;stroke-dasharray:0.8,1.32;stroke-dashoffset:0;stroke-width:0.8;"/>
     </g>
     <g id="line2d_25">
      <g>
       <use style="stroke:#000000;stroke-width:0.8;" x="57.6" xlink:href="#m1d089c526f" y="147.271857"/>
      </g>
     </g>
     <g id="text_16">
      <!-- 1.2 -->
      <g transform="translate(38.196875 151.071075)scale(0.1 -0.1)">
       <use xlink:href="#DejaVuSans-31"/>
       <use x="63.623047" xlink:href="#DejaVuSans-2e"/>
       <use x="95.410156" xlink:href="#DejaVuSans-32"/>
      </g>
     </g>
    </g>
   </g>
   <g id="line2d_26">
    <path clip-path="url(#pa4f5fba2f3)" d="M 73.832727 207.78917 
L 74.11212 208.352154 
L 74.670906 208.748262 
L 74.950299 208.65571 
L 75.788478 209.20278 
L 76.06787 209.10384 
L 76.347263 209.221985 
L 76.906049 209.133867 
L 77.185442 208.860776 
L 77.464835 209.279245 
L 77.744228 209.3809 
L 78.023621 209.328477 
L 78.582407 209.482295 
L 79.141192 209.403823 
L 79.420585 209.594607 
L 79.699978 209.518983 
L 81.096943 209.64553 
L 81.655728 209.638981 
L 81.935121 209.74327 
L 82.214514 209.704076 
L 82.7733 209.81287 
L 83.052693 209.63881 
L 83.611479 209.797662 
L 83.890872 209.656579 
L 84.170264 209.803662 
L 84.449657 209.352474 
L 84.72905 209.805518 
L 86.126015 209.921025 
L 86.684801 209.519558 
L 86.964193 209.762205 
L 88.081765 209.930867 
L 88.640551 209.777502 
L 89.478729 209.905622 
L 91.155087 209.837918 
L 94.228409 209.746755 
L 94.507802 209.437954 
L 95.066587 209.676927 
L 97.301731 209.444381 
L 97.581123 209.304994 
L 98.139909 209.569191 
L 99.257481 209.408416 
L 99.536874 209.407501 
L 99.816267 209.248768 
L 100.375052 209.383595 
L 100.654445 209.453228 
L 101.492624 209.344049 
L 101.772017 209.399551 
L 102.05141 209.220641 
L 102.330803 209.415003 
L 104.286553 209.291579 
L 104.565946 209.340589 
L 105.124732 209.046807 
L 105.404125 209.315737 
L 105.683517 209.100027 
L 105.96291 209.08789 
L 106.242303 209.193876 
L 106.521696 208.206811 
L 106.801089 209.2232 
L 107.080482 209.3368 
L 107.918661 200.981838 
L 108.198054 199.930154 
L 108.756839 200.906035 
L 109.315625 199.310142 
L 109.595018 200.477885 
L 109.874411 200.457276 
L 110.433197 199.743547 
L 110.991982 181.577734 
L 111.271375 180.451205 
L 111.830161 176.735352 
L 112.109554 177.02043 
L 112.388947 178.646111 
L 112.947733 175.446025 
L 113.227126 175.888805 
L 113.506519 175.16476 
L 113.785911 175.805084 
L 114.344697 169.830356 
L 114.62409 167.653827 
L 114.903483 171.51014 
L 115.182876 171.732562 
L 115.462269 169.840341 
L 115.741662 164.817491 
L 116.021055 168.297182 
L 116.300448 167.152398 
L 116.57984 166.939089 
L 116.859233 167.351563 
L 117.138626 167.306728 
L 117.418019 167.988945 
L 117.697412 170.089401 
L 117.976805 168.386619 
L 118.256198 170.322581 
L 118.535591 169.723437 
L 118.814984 171.240113 
L 119.373769 172.549895 
L 119.653162 173.082292 
L 120.491341 178.310846 
L 121.050127 181.128767 
L 121.32952 180.505037 
L 121.608913 180.879905 
L 121.888305 180.039709 
L 122.167698 180.526167 
L 122.447091 181.497135 
L 122.726484 182.035734 
L 123.005877 182.000415 
L 123.28527 179.556452 
L 123.564663 181.123621 
L 123.844056 181.610745 
L 124.123449 181.12042 
L 124.402841 181.155741 
L 124.682234 181.004428 
L 124.961627 180.642219 
L 125.24102 182.001225 
L 125.520413 181.17733 
L 125.799806 179.955479 
L 126.079199 179.36531 
L 126.358592 179.927488 
L 126.637985 178.988655 
L 126.917378 179.2026 
L 127.19677 179.645414 
L 127.476163 179.709787 
L 127.755556 179.433462 
L 128.034949 178.473297 
L 128.314342 178.754928 
L 128.593735 178.157293 
L 128.873128 179.035581 
L 129.431914 177.834172 
L 129.711307 178.233956 
L 129.990699 179.185303 
L 130.270092 179.066684 
L 130.549485 180.310438 
L 130.828878 179.795644 
L 131.108271 181.067524 
L 131.387664 180.397463 
L 131.94645 181.535252 
L 132.225843 181.281463 
L 132.505235 179.054732 
L 132.784628 180.973686 
L 133.343414 180.737019 
L 133.622807 181.433982 
L 133.9022 180.876034 
L 134.460986 185.572803 
L 134.740379 186.506419 
L 135.019772 184.783275 
L 135.299164 185.168963 
L 135.578557 186.90037 
L 135.85795 187.215807 
L 136.137343 188.156234 
L 136.416736 188.6445 
L 136.696129 188.367858 
L 136.975522 186.576635 
L 137.254915 186.701305 
L 137.813701 197.764918 
L 138.093093 198.116559 
L 138.372486 197.327297 
L 139.210665 197.154704 
L 139.490058 196.6505 
L 139.769451 197.317539 
L 140.048844 197.366802 
L 140.328237 196.993816 
L 140.607629 197.046293 
L 140.887022 195.858327 
L 141.166415 193.885881 
L 141.445808 194.092731 
L 141.725201 191.043256 
L 142.004594 182.82087 
L 142.283987 180.846119 
L 142.56338 180.756858 
L 142.842773 179.923176 
L 143.122166 178.649361 
L 143.401558 178.763198 
L 143.680951 179.305558 
L 143.960344 178.731317 
L 144.239737 178.523117 
L 144.51913 178.84803 
L 144.798523 176.281957 
L 145.077916 177.58516 
L 145.357309 176.614463 
L 145.636702 177.041562 
L 145.916095 178.387254 
L 146.195487 177.326328 
L 146.47488 177.892728 
L 146.754273 176.439016 
L 147.033666 177.93637 
L 147.313059 175.617498 
L 147.592452 176.102675 
L 147.871845 175.867555 
L 148.989416 179.766265 
L 149.268809 178.788843 
L 149.548202 176.366055 
L 149.827595 177.652656 
L 150.106988 179.659271 
L 150.386381 180.809876 
L 150.665774 178.132552 
L 150.945167 177.706657 
L 151.22456 177.965281 
L 151.783345 179.871041 
L 152.062738 182.133669 
L 152.342131 182.449031 
L 152.900917 185.787075 
L 153.18031 186.427201 
L 153.739096 204.381532 
L 154.018488 207.052732 
L 154.577274 208.301764 
L 155.13606 208.830842 
L 155.415453 209.056418 
L 155.694846 208.987816 
L 155.974239 209.310118 
L 157.650596 209.308398 
L 158.209382 209.53684 
L 159.606346 209.546411 
L 159.885739 209.700781 
L 162.120882 209.613943 
L 162.400275 209.832416 
L 162.679668 209.851456 
L 162.959061 209.708722 
L 163.238454 209.830406 
L 163.79724 209.775375 
L 164.635419 209.891189 
L 167.149955 209.863735 
L 167.988133 209.978916 
L 170.223276 209.921207 
L 171.061455 209.931587 
L 171.340848 209.93672 
L 171.620241 209.821407 
L 171.899634 209.939659 
L 175.252349 209.772463 
L 178.046278 209.64107 
L 178.32567 209.567917 
L 178.884456 209.760046 
L 179.163849 209.580863 
L 180.281421 209.616605 
L 180.840207 209.529764 
L 181.119599 209.203364 
L 181.678385 209.593579 
L 182.237171 209.445486 
L 182.795957 209.702765 
L 183.354743 209.376248 
L 183.634136 209.595186 
L 183.913528 209.362038 
L 184.751707 209.543301 
L 185.0311 209.480045 
L 185.310493 209.610759 
L 185.869279 209.333322 
L 186.148672 209.522858 
L 186.707457 209.440228 
L 186.98685 209.468241 
L 187.266243 209.21734 
L 187.545636 209.559571 
L 188.383815 200.42714 
L 188.663208 199.833704 
L 189.221993 201.262875 
L 189.501386 201.322628 
L 189.780779 200.696146 
L 190.060172 200.476266 
L 190.339565 200.461517 
L 190.618958 200.192745 
L 190.898351 199.388131 
L 191.457137 185.756315 
L 192.295315 177.780459 
L 192.574708 176.744277 
L 192.854101 178.637573 
L 193.133494 178.265506 
L 193.412887 179.534324 
L 193.69228 180.005228 
L 193.971673 178.503204 
L 194.251066 178.071044 
L 194.809851 176.468756 
L 195.927423 170.752494 
L 196.206816 171.621276 
L 196.486209 172.070287 
L 196.765602 172.769606 
L 197.044995 171.927668 
L 197.324387 172.729737 
L 197.60378 172.844539 
L 197.883173 174.306826 
L 198.162566 174.947966 
L 198.441959 173.000598 
L 198.721352 173.796166 
L 199.280138 174.125787 
L 199.559531 173.982803 
L 199.838923 174.121095 
L 200.118316 173.350809 
L 200.397709 173.523278 
L 200.677102 178.300461 
L 201.235888 179.369937 
L 201.794674 179.77543 
L 202.074067 179.554771 
L 202.35346 181.410253 
L 202.632852 180.920939 
L 202.912245 182.130072 
L 203.191638 180.341245 
L 203.471031 179.442988 
L 203.750424 179.758438 
L 204.029817 182.433501 
L 204.30921 182.630357 
L 204.588603 181.055432 
L 204.867996 181.254454 
L 205.147389 181.891623 
L 205.426781 181.781536 
L 205.706174 181.963445 
L 205.985567 181.903902 
L 206.26496 183.386236 
L 206.544353 182.777481 
L 206.823746 182.982831 
L 207.382532 182.234199 
L 207.661925 182.255649 
L 207.941317 182.952362 
L 208.22071 183.314182 
L 208.500103 182.860734 
L 208.779496 182.153477 
L 209.058889 182.484227 
L 209.338282 182.551303 
L 209.617675 182.796702 
L 209.897068 183.234779 
L 210.176461 183.904917 
L 210.455854 182.733108 
L 210.735246 182.766014 
L 211.014639 180.832413 
L 211.294032 183.322837 
L 211.573425 184.014304 
L 211.852818 186.143924 
L 212.132211 185.024404 
L 212.411604 185.644216 
L 212.690997 185.163418 
L 212.97039 181.479549 
L 213.249783 181.2036 
L 213.529175 183.327791 
L 213.808568 181.216745 
L 214.087961 181.850714 
L 214.367354 180.019433 
L 214.646747 185.616457 
L 214.92614 187.991101 
L 215.205533 188.706601 
L 215.484926 189.882177 
L 215.764319 188.879423 
L 216.043711 187.439046 
L 216.323104 187.964566 
L 216.602497 189.540106 
L 216.88189 189.765628 
L 217.161283 187.689074 
L 217.440676 187.85613 
L 217.720069 188.46307 
L 218.278855 197.563402 
L 218.558248 196.488167 
L 218.83764 196.01057 
L 219.117033 197.117936 
L 219.396426 196.870108 
L 219.675819 196.998192 
L 219.955212 196.282255 
L 220.234605 196.14463 
L 220.513998 194.725013 
L 220.793391 195.92776 
L 221.352176 193.692275 
L 222.190355 187.115874 
L 222.469748 177.950093 
L 222.749141 178.391585 
L 223.028534 178.003028 
L 223.307927 178.511234 
L 223.866713 176.768151 
L 224.425498 175.046503 
L 224.704891 175.431877 
L 224.984284 175.125826 
L 225.263677 175.849732 
L 225.822463 172.770363 
L 226.101856 173.040703 
L 226.381249 173.702725 
L 226.660642 173.33934 
L 226.940034 173.537038 
L 227.219427 173.945672 
L 227.49882 173.884117 
L 227.778213 174.108548 
L 228.057606 174.179225 
L 228.336999 172.49485 
L 228.616392 172.746613 
L 228.895785 173.346036 
L 229.175178 174.441976 
L 229.45457 176.600944 
L 229.733963 175.206861 
L 230.013356 174.418816 
L 230.292749 174.947837 
L 230.572142 177.779693 
L 230.851535 177.744605 
L 231.130928 177.475599 
L 231.410321 175.371599 
L 231.689714 175.210913 
L 232.807285 180.101402 
L 233.086678 180.89138 
L 233.366071 182.688828 
L 233.645464 183.364038 
L 234.20425 204.652161 
L 234.483643 206.574891 
L 234.763036 207.576243 
L 235.321821 208.606789 
L 236.16 209.080558 
L 236.439393 209.074141 
L 237.277572 209.369875 
L 237.556964 209.29435 
L 237.836357 209.472425 
L 238.11575 209.429331 
L 238.674536 209.56673 
L 238.953929 209.395458 
L 239.233322 209.454999 
L 239.512715 209.651468 
L 239.792108 209.498282 
L 240.071501 209.599888 
L 240.350893 209.519103 
L 240.630286 209.698497 
L 240.909679 209.705422 
L 241.189072 209.505143 
L 241.468465 209.716634 
L 241.747858 209.720754 
L 242.027251 209.847198 
L 242.306644 209.716499 
L 243.983001 209.737578 
L 244.262394 209.869037 
L 244.541787 209.693914 
L 245.100573 209.883609 
L 245.938751 209.850808 
L 246.497537 209.915441 
L 246.77693 209.761636 
L 247.335716 209.94358 
L 249.012073 209.887613 
L 249.291466 209.973241 
L 249.570859 209.883061 
L 250.129645 209.924446 
L 250.967824 209.820761 
L 251.526609 209.931708 
L 252.644181 209.871823 
L 252.923574 209.959312 
L 253.48236 209.865301 
L 254.041145 209.864419 
L 254.599931 209.830802 
L 255.158717 209.853983 
L 256.276289 209.774231 
L 256.555681 209.791743 
L 257.114467 209.609291 
L 257.39386 209.761641 
L 257.952646 209.595357 
L 258.232039 209.074453 
L 258.511432 209.715691 
L 259.34961 209.413279 
L 259.629003 208.366967 
L 259.908396 209.580922 
L 260.187789 209.499052 
L 260.467182 209.585833 
L 261.025968 209.337019 
L 261.305361 209.408652 
L 261.584754 209.321108 
L 261.864146 209.611799 
L 262.143539 209.182257 
L 262.422932 209.401857 
L 263.540504 209.480894 
L 263.819897 209.218819 
L 264.09929 209.496538 
L 264.658075 209.500907 
L 264.937468 209.38398 
L 265.496254 209.612522 
L 265.775647 209.55297 
L 266.334433 209.064403 
L 266.613826 209.484113 
L 267.452004 209.510531 
L 267.731397 209.397914 
L 268.01079 209.480343 
L 268.569576 201.762917 
L 269.128362 199.476258 
L 269.407755 200.519762 
L 269.687148 200.556456 
L 269.96654 199.701043 
L 270.245933 199.771402 
L 270.804719 198.511919 
L 271.084112 199.08657 
L 271.363505 198.463168 
L 271.642898 191.841055 
L 271.642898 191.841055 
" style="fill:none;stroke:#545e75;stroke-linecap:square;stroke-opacity:0.7;stroke-width:1.5;"/>
   </g>
   <g id="line2d_27">
    <path clip-path="url(#pa4f5fba2f3)" d="M 271.922291 210.104471 
L 272.201684 210.104471 
L 272.481077 210.104471 
L 272.760469 210.104471 
L 273.039862 210.104471 
L 273.319255 210.104471 
L 273.598648 210.104471 
L 273.878041 210.104471 
L 274.157434 210.104471 
L 274.436827 210.104471 
L 274.71622 210.104471 
L 274.995613 210.104471 
L 275.275005 210.104471 
L 275.554398 210.104471 
L 275.833791 210.104471 
L 276.113184 210.104471 
L 276.392577 210.104471 
L 276.67197 210.104471 
L 276.951363 210.104471 
L 277.230756 210.104471 
L 277.510149 210.104471 
L 277.789542 210.104471 
L 278.068934 210.104471 
L 278.348327 210.104471 
L 278.62772 210.104471 
L 278.907113 210.104471 
L 279.186506 210.104471 
L 279.465899 210.104471 
L 279.745292 210.104471 
L 280.024685 210.104471 
L 280.304078 210.104471 
L 280.583471 210.104471 
L 280.862863 210.104471 
L 281.142256 210.104471 
L 281.421649 210.104471 
L 281.701042 210.104471 
L 281.980435 210.104471 
L 282.259828 210.104471 
L 282.539221 210.104471 
L 282.818614 210.104471 
L 283.098007 210.104471 
L 283.377399 210.104471 
L 283.656792 210.104471 
L 283.936185 210.104471 
L 284.215578 210.104471 
L 284.494971 210.104471 
L 284.774364 210.104471 
L 285.053757 210.104471 
L 285.33315 210.104471 
L 285.612543 210.104471 
" style="fill:none;stroke:#e09f3e;stroke-linecap:square;stroke-opacity:0.7;stroke-width:1.5;"/>
   </g>
   <g id="line2d_28">
    <path clip-path="url(#pa4f5fba2f3)" d="M 285.891936 210.104471 
L 286.171328 209.39309 
L 286.450721 208.343532 
L 287.009507 198.791886 
L 287.2889 198.045028 
L 287.568293 192.390018 
L 287.847686 193.221258 
L 288.127079 182.300386 
L 288.406472 165.139638 
L 288.685864 159.263704 
L 289.524043 169.277224 
L 290.082829 178.233563 
L 290.362222 180.686489 
L 290.921008 170.570881 
L 291.200401 169.056099 
L 291.479793 174.318152 
L 291.759186 175.869736 
L 292.317972 184.05044 
L 292.597365 188.160252 
L 292.876758 194.000287 
L 293.156151 197.008294 
L 293.714937 196.178971 
L 293.99433 196.944737 
L 294.273722 199.353669 
L 294.553115 197.484267 
L 294.832508 197.070094 
L 295.111901 196.931212 
L 295.391294 188.015889 
L 295.670687 187.423907 
L 295.95008 187.21082 
L 296.229473 184.519095 
L 296.508866 183.478039 
L 296.788258 185.952372 
L 297.067651 189.914029 
L 297.347044 187.511211 
L 297.626437 187.650464 
L 297.90583 190.901956 
L 298.185223 188.978963 
L 298.744009 166.675256 
L 299.023402 166.83129 
L 299.302795 164.800454 
L 300.140973 170.760094 
L 300.420366 171.885346 
L 300.699759 170.843606 
L 300.979152 173.514694 
L 301.258545 177.716074 
L 301.537938 187.659317 
L 301.817331 168.809759 
L 302.096724 168.94856 
L 302.376116 166.700498 
L 302.655509 165.953991 
L 302.934902 163.338514 
L 303.493688 147.933955 
L 303.773081 150.576188 
L 304.052474 143.694252 
L 304.331867 146.407683 
L 304.61126 143.911277 
L 304.890652 144.971036 
L 305.170045 144.425125 
L 305.449438 143.111429 
L 305.728831 141.038154 
L 306.008224 141.250679 
L 306.287617 141.290085 
L 306.56701 141.108399 
L 306.846403 141.221739 
L 307.125796 141.879484 
L 307.405189 155.417616 
L 307.684581 144.528294 
L 307.963974 147.203825 
L 308.243367 154.640332 
L 308.52276 152.709323 
L 308.802153 145.238294 
L 309.081546 156.146333 
L 309.360939 149.351538 
L 309.640332 149.256045 
L 310.199118 158.257956 
L 310.47851 162.323857 
L 310.757903 156.383086 
L 311.037296 154.596576 
L 311.316689 154.782555 
L 311.596082 153.978539 
L 312.154868 164.229426 
L 312.434261 165.589476 
L 312.713654 162.50824 
L 312.993046 161.058552 
L 313.272439 166.330102 
L 313.551832 168.857081 
L 313.831225 176.587629 
L 314.110618 179.737448 
L 314.390011 178.421954 
L 314.948797 185.002215 
L 315.22819 190.810128 
L 315.507583 179.628742 
L 315.786975 177.108182 
L 316.066368 178.668466 
L 316.345761 174.994865 
L 316.625154 174.287694 
L 316.904547 187.980213 
L 317.18394 190.16701 
L 317.463333 194.096528 
L 317.742726 196.336387 
L 318.022119 196.691245 
L 318.301512 197.304997 
L 318.580904 197.577364 
L 318.860297 196.832413 
L 319.13969 193.463536 
L 319.698476 201.925497 
L 319.977869 202.712507 
L 320.257262 202.168363 
L 320.536655 200.244757 
L 321.09544 203.704442 
L 321.374833 203.187233 
L 321.933619 205.668604 
L 322.213012 205.769027 
L 322.492405 207.038861 
L 322.771798 208.989145 
L 323.051191 209.792531 
L 323.889369 209.89818 
L 324.168762 210.064914 
L 324.448155 210.006719 
L 325.286334 210.0933 
L 326.124513 209.928703 
L 326.403905 209.732118 
L 326.683298 210.083143 
L 326.962691 209.984187 
L 327.521477 210.094594 
L 328.918442 210.072606 
L 329.197834 210.0757 
L 329.477227 209.839712 
L 329.75662 210.09276 
L 333.388728 210.100074 
L 334.506299 210.038638 
L 335.065085 210.033739 
L 335.623871 209.985835 
L 335.903264 210.049607 
L 336.182657 209.980043 
L 336.741443 210.076249 
L 338.138407 210.090288 
L 338.4178 210.013569 
L 338.697193 210.079328 
L 338.976586 209.802349 
L 339.535372 210.019462 
L 339.814765 208.684872 
L 340.094157 208.674124 
L 340.37355 210.000662 
L 340.652943 209.954674 
L 340.932336 210.049332 
L 342.049908 209.836406 
L 342.608693 209.949576 
L 342.888086 209.938113 
L 343.167479 210.050211 
L 343.446872 210.037014 
L 343.726265 209.293673 
L 344.005658 209.878514 
L 344.285051 209.925612 
L 344.843837 209.422784 
L 345.12323 207.623795 
L 345.402622 209.137353 
L 345.682015 209.188085 
L 345.961408 209.856743 
L 346.240801 210.02161 
L 346.520194 207.419605 
L 346.799587 203.771194 
L 347.07898 195.90776 
L 347.358373 192.070103 
L 347.637766 190.839483 
L 347.917159 186.293765 
L 348.196551 185.837657 
L 348.475944 192.550982 
L 348.755337 192.827633 
L 349.03473 191.521115 
L 349.314123 192.729915 
L 349.593516 192.937839 
L 349.872909 196.634849 
L 350.431695 196.230881 
L 350.711087 196.819473 
L 350.99048 198.2357 
L 351.549266 199.43779 
L 351.828659 199.182079 
L 352.108052 198.376284 
L 352.387445 195.054216 
L 352.666838 189.548548 
L 352.946231 198.645647 
L 353.225624 198.638598 
L 353.505016 201.957067 
L 353.784409 199.156706 
L 354.063802 198.87676 
L 354.343195 200.114703 
L 354.622588 199.946406 
L 354.901981 201.040927 
L 355.181374 198.57625 
L 355.74016 191.041846 
L 356.298945 201.300797 
L 356.578338 200.745854 
L 356.857731 201.481941 
L 357.137124 199.387657 
L 357.416517 195.507011 
L 357.69591 194.436208 
L 357.975303 192.567533 
L 358.254696 191.483996 
L 358.534089 189.316465 
L 359.372267 144.747873 
L 359.65166 141.18334 
L 359.931053 142.80239 
L 360.210446 138.951529 
L 360.489839 141.391912 
L 360.769232 149.854364 
L 361.048625 150.3919 
L 361.328018 158.793821 
L 361.60741 158.684867 
L 361.886803 152.613362 
L 362.166196 155.322853 
L 362.445589 160.767282 
L 362.724982 163.248726 
L 363.004375 164.101459 
L 363.563161 178.472584 
L 363.842554 188.722638 
L 364.121946 189.055963 
L 364.401339 185.050508 
L 364.960125 188.643484 
L 365.239518 187.801147 
L 365.518911 185.902074 
L 365.798304 186.763721 
L 366.077697 188.294189 
L 366.35709 183.086896 
L 366.636483 180.326494 
L 366.915875 188.460556 
L 367.474661 189.721282 
L 367.754054 191.385595 
L 368.033447 190.967545 
L 368.31284 191.003473 
L 368.592233 191.843227 
L 369.430412 183.036121 
L 369.709804 182.182656 
L 369.989197 182.878235 
L 370.26859 181.972718 
L 370.547983 182.430753 
L 371.106769 181.047148 
L 371.386162 181.648809 
L 371.665555 180.265186 
L 371.944948 180.450002 
L 372.22434 181.91 
L 372.503733 181.446391 
L 372.783126 179.40129 
L 373.062519 181.246541 
L 373.341912 186.969648 
L 373.621305 185.905665 
L 373.900698 186.383163 
L 374.180091 187.39088 
L 374.459484 189.204791 
L 374.738877 189.029246 
L 375.577055 181.316293 
L 375.856448 181.166045 
L 376.135841 182.931468 
L 376.415234 185.745646 
L 376.694627 185.418129 
L 376.97402 190.626794 
L 377.532806 192.724335 
L 377.812198 198.353532 
L 378.370984 195.643551 
L 378.650377 196.673186 
L 379.209163 197.423968 
L 379.488556 197.113655 
L 379.767949 195.548025 
L 380.047342 197.721555 
L 380.326734 197.498566 
L 380.606127 194.402727 
L 380.88552 196.61806 
L 381.164913 196.569726 
L 381.723699 196.055445 
L 382.003092 192.310457 
L 382.841271 169.147476 
L 383.120663 166.755934 
L 383.679449 165.95943 
L 383.958842 151.366466 
L 384.238235 147.17186 
L 384.517628 145.791891 
L 384.797021 145.102386 
L 385.076414 142.227303 
L 385.635199 141.614 
L 385.914592 140.179986 
L 386.193985 142.923526 
L 386.473378 143.955551 
L 386.752771 144.367533 
L 387.032164 145.323413 
L 387.311557 145.272151 
L 387.59095 148.703604 
L 387.870343 147.639897 
L 388.149736 148.130364 
L 388.429128 147.723362 
L 388.708521 152.253972 
L 388.987914 149.739358 
L 389.5467 147.433346 
L 389.826093 149.844512 
L 390.384879 151.950833 
L 390.664272 154.162065 
L 390.943665 151.858951 
L 391.223057 153.818162 
L 391.781843 147.862509 
L 392.061236 151.692692 
L 392.340629 150.747774 
L 392.620022 144.390209 
L 392.899415 144.563481 
L 393.178808 148.547832 
L 393.737593 167.024999 
L 394.016986 165.111577 
L 394.296379 171.074546 
L 394.575772 170.872351 
L 394.855165 176.545419 
L 395.134558 185.260517 
L 395.413951 189.332256 
L 395.693344 187.790707 
L 395.972737 181.595728 
L 396.25213 178.484044 
L 396.531522 178.977517 
L 396.810915 172.268103 
L 397.090308 179.107303 
L 397.369701 177.809406 
L 397.649094 177.25658 
L 397.928487 180.900806 
L 398.20788 189.287099 
L 398.487273 193.379637 
L 398.487273 193.379637 
" style="fill:none;stroke:#e09f3e;stroke-linecap:square;stroke-opacity:0.7;stroke-width:1.5;"/>
   </g>
   <g id="patch_8">
    <path d="M 57.6 213.662118 
L 57.6 135.393882 
" style="fill:none;stroke:#000000;stroke-linecap:square;stroke-linejoin:miter;stroke-width:0.8;"/>
   </g>
   <g id="patch_9">
    <path d="M 414.72 213.662118 
L 414.72 135.393882 
" style="fill:none;stroke:#000000;stroke-linecap:square;stroke-linejoin:miter;stroke-width:0.8;"/>
   </g>
   <g id="patch_10">
    <path d="M 57.6 213.662118 
L 414.72 213.662118 
" style="fill:none;stroke:#000000;stroke-linecap:square;stroke-linejoin:miter;stroke-width:0.8;"/>
   </g>
   <g id="patch_11">
    <path d="M 57.6 135.393882 
L 414.72 135.393882 
" style="fill:none;stroke:#000000;stroke-linecap:square;stroke-linejoin:miter;stroke-width:0.8;"/>
   </g>
  </g>
  <g id="axes_3">
   <g id="patch_12">
    <path d="M 57.6 307.584 
L 414.72 307.584 
L 414.72 229.315765 
L 57.6 229.315765 
z
" style="fill:#ffffff;"/>
   </g>
   <g id="matplotlib.axis_5">
    <g id="xtick_9">
     <g id="line2d_29">
      <g>
       <use style="stroke:#000000;stroke-width:0.8;" x="126.860577" xlink:href="#m8d47e06f72" y="307.584"/>
      </g>
     </g>
     <g id="text_17">
      <!-- day1 -->
      <g transform="translate(114.48167 318.682437)scale(0.1 -0.1)">
       <use xlink:href="#DejaVuSans-64"/>
       <use x="63.476562" xlink:href="#DejaVuSans-61"/>
       <use x="124.755859" xlink:href="#DejaVuSans-79"/>
       <use x="183.935547" xlink:href="#DejaVuSans-31"/>
      </g>
     </g>
    </g>
    <g id="xtick_10">
     <g id="line2d_30">
      <g>
       <use style="stroke:#000000;stroke-width:0.8;" x="208.094729" xlink:href="#m8d47e06f72" y="307.584"/>
      </g>
     </g>
     <g id="text_18">
      <!-- day2 -->
      <g transform="translate(195.715822 318.682437)scale(0.1 -0.1)">
       <use xlink:href="#DejaVuSans-64"/>
       <use x="63.476562" xlink:href="#DejaVuSans-61"/>
       <use x="124.755859" xlink:href="#DejaVuSans-79"/>
       <use x="183.935547" xlink:href="#DejaVuSans-32"/>
      </g>
     </g>
    </g>
    <g id="xtick_11">
     <g id="line2d_31">
      <g>
       <use style="stroke:#000000;stroke-width:0.8;" x="289.328881" xlink:href="#m8d47e06f72" y="307.584"/>
      </g>
     </g>
     <g id="text_19">
      <!-- day3 -->
      <g transform="translate(276.949975 318.682437)scale(0.1 -0.1)">
       <use xlink:href="#DejaVuSans-64"/>
       <use x="63.476562" xlink:href="#DejaVuSans-61"/>
       <use x="124.755859" xlink:href="#DejaVuSans-79"/>
       <use x="183.935547" xlink:href="#DejaVuSans-33"/>
      </g>
     </g>
    </g>
    <g id="xtick_12">
     <g id="line2d_32">
      <g>
       <use style="stroke:#000000;stroke-width:0.8;" x="370.563033" xlink:href="#m8d47e06f72" y="307.584"/>
      </g>
     </g>
     <g id="text_20">
      <!-- day4 -->
      <g transform="translate(358.184127 318.682437)scale(0.1 -0.1)">
       <use xlink:href="#DejaVuSans-64"/>
       <use x="63.476562" xlink:href="#DejaVuSans-61"/>
       <use x="124.755859" xlink:href="#DejaVuSans-79"/>
       <use x="183.935547" xlink:href="#DejaVuSans-34"/>
      </g>
     </g>
    </g>
   </g>
   <g id="matplotlib.axis_6">
    <g id="ytick_9">
     <g id="line2d_33">
      <path clip-path="url(#p9e8aa6cad1)" d="M 57.6 307.584 
L 414.72 307.584 
" style="fill:none;stroke:#b0b0b0;stroke-dasharray:0.8,1.32;stroke-dashoffset:0;stroke-width:0.8;"/>
     </g>
     <g id="line2d_34">
      <g>
       <use style="stroke:#000000;stroke-width:0.8;" x="57.6" xlink:href="#m1d089c526f" y="307.584"/>
      </g>
     </g>
     <g id="text_21">
      <!-- 0.0 -->
      <g transform="translate(38.196875 311.383219)scale(0.1 -0.1)">
       <use xlink:href="#DejaVuSans-30"/>
       <use x="63.623047" xlink:href="#DejaVuSans-2e"/>
       <use x="95.410156" xlink:href="#DejaVuSans-30"/>
      </g>
     </g>
    </g>
    <g id="ytick_10">
     <g id="line2d_35">
      <path clip-path="url(#p9e8aa6cad1)" d="M 57.6 282.604776 
L 414.72 282.604776 
" style="fill:none;stroke:#b0b0b0;stroke-dasharray:0.8,1.32;stroke-dashoffset:0;stroke-width:0.8;"/>
     </g>
     <g id="line2d_36">
      <g>
       <use style="stroke:#000000;stroke-width:0.8;" x="57.6" xlink:href="#m1d089c526f" y="282.604776"/>
      </g>
     </g>
     <g id="text_22">
      <!-- 1.5 -->
      <g transform="translate(38.196875 286.403995)scale(0.1 -0.1)">
       <defs>
        <path d="M 691 4666 
L 3169 4666 
L 3169 4134 
L 1269 4134 
L 1269 2991 
Q 1406 3038 1543 3061 
Q 1681 3084 1819 3084 
Q 2600 3084 3056 2656 
Q 3513 2228 3513 1497 
Q 3513 744 3044 326 
Q 2575 -91 1722 -91 
Q 1428 -91 1123 -41 
Q 819 9 494 109 
L 494 744 
Q 775 591 1075 516 
Q 1375 441 1709 441 
Q 2250 441 2565 725 
Q 2881 1009 2881 1497 
Q 2881 1984 2565 2268 
Q 2250 2553 1709 2553 
Q 1456 2553 1204 2497 
Q 953 2441 691 2322 
L 691 4666 
z
" id="DejaVuSans-35" transform="scale(0.015625)"/>
       </defs>
       <use xlink:href="#DejaVuSans-31"/>
       <use x="63.623047" xlink:href="#DejaVuSans-2e"/>
       <use x="95.410156" xlink:href="#DejaVuSans-35"/>
      </g>
     </g>
    </g>
    <g id="ytick_11">
     <g id="line2d_37">
      <path clip-path="url(#p9e8aa6cad1)" d="M 57.6 257.625552 
L 414.72 257.625552 
" style="fill:none;stroke:#b0b0b0;stroke-dasharray:0.8,1.32;stroke-dashoffset:0;stroke-width:0.8;"/>
     </g>
     <g id="line2d_38">
      <g>
       <use style="stroke:#000000;stroke-width:0.8;" x="57.6" xlink:href="#m1d089c526f" y="257.625552"/>
      </g>
     </g>
     <g id="text_23">
      <!-- 3.0 -->
      <g transform="translate(38.196875 261.424771)scale(0.1 -0.1)">
       <use xlink:href="#DejaVuSans-33"/>
       <use x="63.623047" xlink:href="#DejaVuSans-2e"/>
       <use x="95.410156" xlink:href="#DejaVuSans-30"/>
      </g>
     </g>
    </g>
    <g id="ytick_12">
     <g id="line2d_39">
      <path clip-path="url(#p9e8aa6cad1)" d="M 57.6 232.646328 
L 414.72 232.646328 
" style="fill:none;stroke:#b0b0b0;stroke-dasharray:0.8,1.32;stroke-dashoffset:0;stroke-width:0.8;"/>
     </g>
     <g id="line2d_40">
      <g>
       <use style="stroke:#000000;stroke-width:0.8;" x="57.6" xlink:href="#m1d089c526f" y="232.646328"/>
      </g>
     </g>
     <g id="text_24">
      <!-- 4.5 -->
      <g transform="translate(38.196875 236.445547)scale(0.1 -0.1)">
       <use xlink:href="#DejaVuSans-34"/>
       <use x="63.623047" xlink:href="#DejaVuSans-2e"/>
       <use x="95.410156" xlink:href="#DejaVuSans-35"/>
      </g>
     </g>
    </g>
   </g>
   <g id="line2d_41">
    <path clip-path="url(#p9e8aa6cad1)" d="M 73.832727 303.714313 
L 74.11479 303.976268 
L 74.396853 303.773231 
L 74.678916 304.529368 
L 75.243042 304.348025 
L 75.807168 305.263147 
L 76.089231 305.027059 
L 76.371295 305.361883 
L 76.653358 305.229171 
L 76.935421 305.954465 
L 77.217484 305.856126 
L 78.345736 306.110964 
L 78.627799 305.866943 
L 79.756051 306.36432 
L 80.60224 306.640513 
L 80.884303 306.526091 
L 81.448429 306.660464 
L 81.730492 306.719656 
L 82.012555 306.916372 
L 82.576681 306.788745 
L 82.858744 306.913688 
L 83.140807 306.915602 
L 83.42287 306.798784 
L 83.704933 307.003195 
L 85.397311 306.947943 
L 85.679374 307.102226 
L 85.961437 306.949565 
L 86.525564 307.102262 
L 87.371753 307.07022 
L 87.653816 307.202272 
L 88.500005 307.126199 
L 89.346194 307.096422 
L 89.628257 307.051866 
L 89.91032 307.129162 
L 91.038572 307.045252 
L 91.602698 307.038444 
L 92.166824 306.875364 
L 92.73095 306.878822 
L 93.295076 306.611755 
L 93.577139 306.596489 
L 94.423328 306.190352 
L 94.987454 306.159162 
L 95.269517 305.834053 
L 96.115707 305.511469 
L 96.39777 305.637085 
L 96.961896 304.947249 
L 97.526022 305.151467 
L 97.808085 304.652476 
L 98.090148 304.834626 
L 98.372211 304.695806 
L 98.654274 304.792062 
L 98.936337 304.519065 
L 99.500463 304.959349 
L 99.782526 304.595966 
L 100.064589 304.667325 
L 100.346652 304.620661 
L 100.910778 304.237872 
L 101.474904 304.532863 
L 102.03903 304.363357 
L 102.321093 304.594886 
L 102.885219 304.087709 
L 103.449345 304.382128 
L 103.731408 304.294581 
L 104.013471 304.385872 
L 104.295534 304.158855 
L 105.423786 303.976173 
L 105.705849 303.835518 
L 105.987912 304.11328 
L 106.552039 304.16126 
L 106.834102 304.161221 
L 107.398228 303.677062 
L 107.680291 303.738216 
L 107.962354 303.956635 
L 108.244417 303.632735 
L 108.808543 303.584224 
L 109.090606 303.495687 
L 109.654732 303.720543 
L 109.936795 303.322475 
L 110.218858 303.134962 
L 110.500921 303.239294 
L 111.065047 303.885531 
L 111.34711 303.501386 
L 111.629173 303.450925 
L 111.911236 303.693018 
L 112.193299 303.627502 
L 112.475362 303.085072 
L 112.757425 303.49093 
L 113.039488 303.382652 
L 113.321551 303.603775 
L 113.603614 303.311021 
L 113.885677 303.496359 
L 114.16774 303.490593 
L 114.449803 303.646263 
L 114.731866 303.449025 
L 115.013929 303.73218 
L 115.295992 303.393728 
L 115.860118 303.603979 
L 116.142182 303.482385 
L 116.424245 302.906276 
L 116.706308 303.401928 
L 116.988371 303.055107 
L 117.270434 302.894997 
L 117.552497 302.987066 
L 117.83456 302.724956 
L 118.398686 303.006117 
L 118.680749 302.539743 
L 118.962812 303.423417 
L 119.244875 303.113432 
L 119.526938 302.977821 
L 119.809001 302.978251 
L 120.091064 303.200989 
L 120.373127 303.208377 
L 120.65519 303.455094 
L 121.501379 303.68523 
L 122.065505 303.266237 
L 122.347568 303.790142 
L 122.629631 253.415867 
L 122.911694 242.361808 
L 123.193757 241.940297 
L 123.47582 240.443587 
L 123.757883 240.896423 
L 124.039946 242.681426 
L 124.322009 243.61055 
L 124.604072 241.236825 
L 124.886135 245.602656 
L 125.168198 243.580815 
L 125.450261 243.57318 
L 125.732324 245.226493 
L 126.296451 243.320606 
L 126.578514 244.345553 
L 126.860577 242.483074 
L 127.14264 243.066053 
L 127.424703 244.206493 
L 127.706766 243.743777 
L 127.988829 245.319942 
L 128.270892 241.250785 
L 128.552955 240.661616 
L 128.835018 243.942699 
L 129.117081 243.879334 
L 129.399144 243.367439 
L 129.96327 241.874975 
L 130.245333 244.650266 
L 130.527396 243.793104 
L 130.809459 242.141076 
L 131.091522 243.778435 
L 131.373585 242.727503 
L 131.655648 243.173849 
L 131.937711 243.975467 
L 132.219774 243.934464 
L 132.501837 244.658949 
L 132.7839 244.025278 
L 133.065963 247.457707 
L 133.348026 242.528323 
L 133.630089 241.778114 
L 134.194215 239.101359 
L 134.476278 239.927905 
L 134.758341 240.203322 
L 135.322467 241.643363 
L 135.60453 240.138011 
L 135.886593 239.283144 
L 136.168657 239.470403 
L 136.45072 241.538099 
L 136.732783 241.55801 
L 137.014846 241.053575 
L 137.296909 239.863219 
L 137.578972 242.506924 
L 137.861035 240.850168 
L 138.143098 242.113274 
L 138.425161 242.402439 
L 138.707224 242.958418 
L 139.27135 244.900302 
L 139.553413 241.02013 
L 139.835476 246.133386 
L 140.117539 238.154693 
L 140.399602 241.37674 
L 140.681665 239.390703 
L 141.245791 240.415471 
L 141.527854 240.386832 
L 141.809917 241.645611 
L 142.09198 241.261862 
L 142.374043 242.136578 
L 142.938169 239.922812 
L 143.220232 243.960607 
L 143.502295 243.171173 
L 143.784358 240.932076 
L 144.066421 241.282238 
L 144.348484 241.039948 
L 144.630547 243.976115 
L 145.194673 244.316881 
L 145.476736 240.593099 
L 145.758799 239.499205 
L 146.322926 241.519074 
L 146.604989 241.884424 
L 146.887052 241.276625 
L 147.169115 241.222347 
L 147.451178 241.552224 
L 147.733241 240.359498 
L 148.015304 240.835135 
L 148.297367 241.600926 
L 148.57943 242.799868 
L 148.861493 242.110941 
L 149.143556 240.19015 
L 149.425619 241.05245 
L 149.707682 242.602811 
L 149.989745 242.863108 
L 150.271808 242.97205 
L 150.553871 242.449315 
L 150.835934 241.692516 
L 151.117997 240.323553 
L 151.40006 241.35937 
L 151.682123 241.948081 
L 151.964186 242.860323 
L 152.246249 241.011852 
L 152.528312 244.655655 
L 152.810375 242.777426 
L 153.092438 242.657976 
L 153.374501 242.082285 
L 153.656564 241.950862 
L 153.938627 244.308093 
L 154.22069 242.664622 
L 154.502753 246.034687 
L 154.784816 242.39948 
L 155.066879 240.227481 
L 155.348942 242.697806 
L 155.631005 242.206906 
L 155.913068 242.004378 
L 156.195132 241.416745 
L 156.477195 241.223277 
L 156.759258 239.578818 
L 157.041321 239.14522 
L 157.323384 240.475202 
L 157.605447 242.389129 
L 157.88751 242.356503 
L 158.169573 242.181043 
L 158.451636 241.280759 
L 158.733699 247.167831 
L 159.297825 242.059653 
L 159.579888 244.018229 
L 159.861951 242.261017 
L 160.144014 244.33226 
L 160.426077 244.515719 
L 160.990203 253.829622 
L 161.272266 264.462233 
L 161.554329 268.630797 
L 162.118455 278.449642 
L 162.964644 290.215872 
L 163.246707 291.1871 
L 163.810833 295.349779 
L 164.092896 295.744154 
L 165.221148 299.435804 
L 165.503211 299.502629 
L 165.785274 300.341898 
L 166.067337 300.793697 
L 166.349401 301.657991 
L 166.631464 302.010273 
L 166.913527 301.723731 
L 167.19559 302.05921 
L 167.477653 301.978902 
L 167.759716 301.111765 
L 168.041779 301.362555 
L 168.887968 301.289427 
L 169.170031 300.647916 
L 169.734157 300.039134 
L 170.01622 299.524378 
L 170.298283 295.164946 
L 170.580346 293.944658 
L 171.144472 286.644094 
L 171.708598 273.388904 
L 172.272724 253.463839 
L 172.554787 245.812017 
L 172.83685 246.085705 
L 173.118913 244.835361 
L 173.400976 244.199318 
L 173.683039 244.293453 
L 173.965102 243.843215 
L 174.529228 238.752946 
L 174.811291 242.136626 
L 175.093354 239.093639 
L 175.375417 240.45913 
L 175.65748 240.53703 
L 175.939543 239.684639 
L 176.221607 241.722694 
L 176.785733 239.468393 
L 177.067796 242.5426 
L 177.349859 241.479686 
L 177.913985 242.507005 
L 178.196048 242.689442 
L 178.478111 244.569556 
L 178.760174 245.217829 
L 179.042237 244.979345 
L 179.3243 243.915802 
L 179.606363 243.358054 
L 179.888426 240.599167 
L 180.170489 242.569634 
L 180.734615 240.427838 
L 181.016678 242.162327 
L 181.298741 242.511138 
L 181.580804 240.041373 
L 181.862867 239.440345 
L 182.14493 239.202301 
L 182.426993 240.16195 
L 182.709056 241.675385 
L 182.991119 240.827744 
L 183.273182 239.446321 
L 183.555245 242.823648 
L 183.837308 240.996729 
L 184.119371 242.520164 
L 184.401434 243.135733 
L 184.683497 244.076989 
L 184.96556 243.645085 
L 185.247623 242.414325 
L 185.529686 242.107008 
L 185.811749 242.037429 
L 186.093812 241.650505 
L 186.375876 242.174979 
L 186.657939 243.499794 
L 186.940002 242.847951 
L 187.222065 244.141442 
L 187.504128 241.581341 
L 187.786191 242.217931 
L 188.350317 239.518437 
L 188.63238 242.610771 
L 188.914443 241.792192 
L 189.196506 242.070366 
L 189.478569 241.877302 
L 190.042695 241.02149 
L 190.324758 241.127656 
L 190.606821 240.62283 
L 190.888884 243.044641 
L 191.170947 243.938306 
L 191.45301 242.818453 
L 192.017136 241.768252 
L 192.581262 238.3174 
L 192.863325 239.185281 
L 193.145388 242.809691 
L 193.709514 240.772561 
L 193.991577 240.99073 
L 194.27364 242.675853 
L 194.555703 240.26707 
L 195.119829 242.891729 
L 195.401892 241.598787 
L 195.683955 242.510587 
L 195.966018 242.64625 
L 196.530145 243.751199 
L 196.812208 241.656692 
L 197.094271 245.423304 
L 197.376334 242.971775 
L 197.658397 238.05041 
L 197.94046 242.019257 
L 198.504586 239.510169 
L 198.786649 240.360076 
L 199.068712 242.008374 
L 199.350775 240.599809 
L 199.914901 243.068817 
L 200.196964 241.83068 
L 200.479027 241.617347 
L 200.76109 242.697715 
L 201.043153 244.436715 
L 201.325216 241.507505 
L 201.607279 244.146894 
L 201.889342 242.565635 
L 202.171405 242.338374 
L 202.453468 241.272656 
L 202.735531 242.976766 
L 203.299657 240.73293 
L 203.58172 240.821821 
L 204.145846 237.703245 
L 204.427909 241.018717 
L 204.709972 239.846635 
L 204.992035 240.71525 
L 205.274098 240.151398 
L 205.556161 243.232064 
L 205.838224 240.959479 
L 206.120287 243.961547 
L 206.402351 243.492039 
L 206.684414 239.750701 
L 206.966477 245.749844 
L 207.24854 243.573929 
L 207.530603 242.298815 
L 207.812666 239.6593 
L 208.376792 246.306004 
L 208.658855 242.503831 
L 208.940918 241.340484 
L 209.222981 246.739481 
L 209.505044 237.890267 
L 209.787107 239.704591 
L 210.06917 239.682517 
L 210.351233 241.618607 
L 210.633296 240.550359 
L 210.915359 240.038471 
L 211.197422 240.827797 
L 211.479485 242.144251 
L 211.761548 242.925295 
L 212.325674 241.552536 
L 212.607737 242.329992 
L 212.8898 241.336885 
L 213.171863 239.902145 
L 213.453926 241.443325 
L 213.735989 244.808338 
L 214.018052 241.731378 
L 214.300115 242.209158 
L 214.864241 242.485792 
L 215.146304 240.144804 
L 215.428367 242.668992 
L 215.71043 241.564783 
L 215.992493 239.767021 
L 216.274557 242.299951 
L 216.838683 241.475104 
L 217.120746 242.77043 
L 217.402809 243.314632 
L 217.684872 240.464738 
L 218.248998 242.555597 
L 218.531061 241.614738 
L 218.813124 242.460241 
L 219.095187 242.895373 
L 219.37725 242.942446 
L 219.659313 241.803771 
L 219.941376 243.346876 
L 220.505502 245.140009 
L 221.069628 239.876901 
L 221.351691 239.929402 
L 221.633754 241.919769 
L 221.915817 239.468563 
L 222.762006 245.755161 
L 223.044069 243.979986 
L 223.326132 243.291047 
L 223.608195 243.078817 
L 223.890258 244.507459 
L 224.172321 242.112329 
L 224.454384 242.138804 
L 224.736447 243.534423 
L 225.01851 242.641877 
L 225.300573 243.628476 
L 225.582636 244.07572 
L 225.864699 243.754163 
L 226.146762 242.517596 
L 226.428826 243.898939 
L 226.710889 240.000223 
L 227.275015 242.782553 
L 227.557078 239.299946 
L 227.839141 242.074424 
L 228.121204 240.760894 
L 228.403267 242.407998 
L 228.68533 240.954949 
L 229.249456 244.249421 
L 229.531519 242.62525 
L 229.813582 243.395479 
L 230.095645 242.586114 
L 230.377708 244.608547 
L 230.659771 242.789383 
L 230.941834 243.022741 
L 231.223897 244.567549 
L 231.50596 244.215937 
L 231.788023 241.123482 
L 232.070086 243.813229 
L 232.352149 239.242693 
L 232.634212 240.732409 
L 232.916275 237.972549 
L 233.198338 241.527568 
L 233.480401 238.953155 
L 233.762464 238.048412 
L 234.044527 241.703959 
L 234.32659 241.29227 
L 234.608653 242.890399 
L 234.890716 242.061051 
L 235.172779 239.004372 
L 235.736905 240.36904 
L 236.018968 244.577659 
L 236.301032 239.787411 
L 236.583095 238.473904 
L 236.865158 242.533044 
L 237.147221 241.587703 
L 237.429284 243.227914 
L 237.711347 239.662108 
L 237.99341 241.607563 
L 238.275473 242.164848 
L 238.557536 241.557936 
L 238.839599 241.294595 
L 239.121662 243.472119 
L 239.403725 247.138236 
L 239.685788 247.072756 
L 239.967851 250.963639 
L 240.81404 271.911623 
L 241.096103 280.065966 
L 241.378166 284.01511 
L 241.660229 290.049167 
L 242.224355 295.570826 
L 242.788481 299.10112 
L 243.070544 299.513981 
L 243.352607 300.207118 
L 243.63467 300.031317 
L 243.916733 300.567381 
L 244.480859 300.726835 
L 244.762922 301.119559 
L 245.327048 302.089355 
L 245.609111 301.694831 
L 245.891174 302.396754 
L 246.173238 302.092229 
L 247.019427 302.53713 
L 247.583553 302.483974 
L 247.865616 302.832718 
L 248.147679 302.590085 
L 248.429742 302.71503 
L 248.711805 302.59334 
L 248.993868 302.829345 
L 249.275931 302.7806 
L 249.557994 302.616856 
L 250.404183 302.683124 
L 250.968309 301.911341 
L 251.250372 302.030477 
L 251.532435 301.516404 
L 251.814498 300.302259 
L 252.096561 300.364485 
L 252.378624 300.124444 
L 252.660687 299.630022 
L 252.94275 299.401737 
L 253.788939 287.524822 
L 254.353065 273.181159 
L 254.635128 268.972647 
L 254.917191 260.44377 
L 255.199254 257.048031 
L 255.481317 255.999085 
L 255.76338 247.823776 
L 256.60957 236.887461 
L 256.891633 242.303484 
L 257.173696 242.151454 
L 257.455759 239.681565 
L 257.737822 241.178208 
L 258.019885 240.695833 
L 258.301948 240.46148 
L 258.584011 236.661707 
L 258.866074 239.887726 
L 259.148137 241.271182 
L 259.4302 240.707839 
L 259.994326 241.463555 
L 260.276389 242.286521 
L 260.558452 239.234955 
L 260.840515 242.77177 
L 261.122578 240.319739 
L 261.404641 240.353769 
L 261.686704 241.290981 
L 261.968767 240.674828 
L 262.25083 238.795893 
L 262.532893 240.741204 
L 262.814956 237.34694 
L 263.097019 239.138745 
L 263.379082 238.490215 
L 263.661145 240.129877 
L 263.943208 239.792018 
L 264.225271 241.046272 
L 264.507334 240.500881 
L 264.789397 242.008015 
L 265.353523 240.745139 
L 265.635586 244.285381 
L 266.199713 241.574228 
L 266.481776 240.414849 
L 266.763839 242.763355 
L 267.045902 242.528679 
L 267.327965 244.155535 
L 267.610028 243.812742 
L 267.892091 241.014266 
L 268.174154 240.842413 
L 268.456217 234.880186 
L 268.73828 239.495839 
L 269.020343 239.161018 
L 269.302406 240.828582 
L 269.584469 240.513192 
L 269.866532 240.412086 
L 270.148595 243.728813 
L 270.430658 242.119697 
L 270.712721 241.978704 
L 270.994784 244.619605 
L 271.276847 241.84214 
L 271.55891 243.320815 
L 272.123036 243.162262 
L 272.405099 242.54383 
L 272.687162 244.317508 
L 272.969225 242.738634 
L 273.251288 243.834141 
L 273.533351 242.53331 
L 273.815414 243.974948 
L 274.097477 242.050909 
L 274.37954 242.509603 
L 274.661603 239.89902 
L 274.943666 238.904951 
L 275.225729 241.556111 
L 275.507792 240.958461 
L 275.789855 243.032505 
L 276.071918 242.097573 
L 276.353982 241.952016 
L 276.636045 242.999272 
L 276.918108 245.551629 
L 277.200171 240.241826 
L 277.482234 240.615322 
L 277.764297 242.232711 
L 278.04636 242.271903 
L 278.328423 239.982512 
L 278.892549 243.956566 
L 279.174612 239.796594 
L 279.456675 241.88469 
L 279.738738 242.456243 
L 280.020801 238.213066 
L 280.302864 239.004328 
L 280.86699 242.372039 
L 281.149053 239.837241 
L 281.431116 240.1096 
L 281.713179 242.331619 
L 281.995242 241.393621 
L 282.277305 244.49556 
L 282.559368 242.847614 
L 282.841431 243.626744 
L 283.123494 245.164175 
L 283.405557 243.71392 
L 283.68762 243.434235 
L 283.969683 245.17874 
L 284.533809 243.114548 
L 284.815872 238.964867 
L 285.097935 242.321862 
L 285.379998 241.698151 
L 285.662061 241.486228 
L 285.944124 240.201222 
L 286.226188 243.462475 
L 286.790314 237.478509 
L 287.072377 241.504997 
L 287.35444 241.024219 
L 287.636503 243.614135 
L 287.918566 241.260306 
L 288.200629 241.783525 
L 288.482692 239.501436 
L 288.764755 242.44414 
L 289.328881 242.988472 
L 289.610944 242.43716 
L 289.893007 243.639269 
L 290.17507 243.275487 
L 290.457133 239.398642 
L 290.739196 238.073287 
L 291.021259 238.739633 
L 291.303322 240.552771 
L 291.585385 239.646051 
L 291.867448 242.781946 
L 292.149511 241.397589 
L 292.431574 243.619807 
L 292.713637 237.963107 
L 292.9957 243.571408 
L 293.277763 239.731856 
L 293.559826 242.657751 
L 293.841889 240.971185 
L 294.406015 240.104937 
L 294.688078 241.690141 
L 294.970141 244.065618 
L 295.252204 241.351771 
L 295.81633 243.270377 
L 296.098393 243.078289 
L 296.380457 239.255535 
L 296.66252 238.334179 
L 296.944583 238.78914 
L 297.226646 240.90576 
L 297.508709 242.136557 
L 297.790772 241.125345 
L 298.072835 243.454947 
L 298.354898 243.049139 
L 298.636961 240.58708 
L 298.919024 240.903261 
L 299.201087 242.986489 
L 299.48315 241.712159 
L 299.765213 241.71336 
L 300.047276 238.938219 
L 300.329339 241.468267 
L 300.893465 241.725637 
L 301.175528 242.350239 
L 301.457591 242.526966 
L 301.739654 240.708325 
L 302.021717 244.160048 
L 302.30378 240.206913 
L 302.585843 240.407584 
L 302.867906 244.502842 
L 303.149969 241.98368 
L 303.432032 243.448668 
L 303.714095 238.549409 
L 303.996158 244.262378 
L 304.278221 238.593607 
L 304.560284 241.352479 
L 304.842347 240.860089 
L 305.12441 241.831387 
L 305.406473 244.378769 
L 305.688536 241.510367 
L 305.970599 241.318217 
L 306.252663 240.766028 
L 306.534726 242.885078 
L 306.816789 242.325412 
L 307.098852 242.915453 
L 307.380915 242.401739 
L 307.662978 243.879106 
L 307.945041 240.600489 
L 308.227104 240.369993 
L 308.509167 242.253433 
L 308.79123 242.138502 
L 309.355356 240.931347 
L 309.637419 241.454101 
L 309.919482 240.305315 
L 310.201545 242.900235 
L 310.483608 241.735776 
L 310.765671 242.986984 
L 311.047734 241.749461 
L 311.329797 241.990369 
L 311.61186 243.564904 
L 311.893923 244.402973 
L 312.175986 244.10973 
L 312.458049 242.604717 
L 312.740112 242.275211 
L 313.022175 243.608107 
L 313.304238 247.105834 
L 313.586301 237.10743 
L 313.868364 240.406058 
L 314.150427 237.511935 
L 314.43249 240.395133 
L 314.714553 239.897914 
L 314.996616 240.059007 
L 315.278679 238.303761 
L 315.560742 238.943739 
L 315.842805 241.028226 
L 316.124868 237.729254 
L 316.406932 241.822953 
L 316.688995 241.627926 
L 316.971058 238.356563 
L 317.535184 241.299364 
L 317.817247 239.95437 
L 318.09931 241.920162 
L 318.381373 240.872262 
L 318.663436 241.236238 
L 318.945499 242.204702 
L 319.227562 237.614453 
L 319.509625 239.874383 
L 319.791688 240.411193 
L 320.073751 238.430441 
L 320.355814 240.788311 
L 320.637877 241.096456 
L 320.91994 246.849267 
L 321.202003 246.896963 
L 321.484066 249.843501 
L 321.766129 251.26572 
L 323.176444 288.842966 
L 323.458507 291.471091 
L 323.74057 292.700611 
L 324.022633 296.785311 
L 324.586759 299.601282 
L 325.150885 301.58893 
L 325.432948 301.58286 
L 325.715011 301.966261 
L 325.997074 301.78659 
L 326.279138 302.046469 
L 326.561201 301.910089 
L 326.843264 302.349137 
L 327.125327 302.252847 
L 327.40739 303.070126 
L 327.971516 303.225043 
L 328.253579 303.184276 
L 328.535642 303.462838 
L 328.817705 303.563394 
L 329.099768 303.78647 
L 329.381831 303.652924 
L 329.663894 303.058056 
L 330.22802 303.358325 
L 330.510083 303.963231 
L 330.792146 303.612088 
L 331.074209 303.020245 
L 331.356272 302.903632 
L 331.638335 303.166349 
L 332.202461 302.212958 
L 332.484524 298.793351 
L 332.766587 298.489864 
L 333.04865 296.53496 
L 333.330713 295.605743 
L 333.612776 296.176029 
L 333.894839 294.965781 
L 334.176902 292.084845 
L 334.741028 291.194925 
L 335.023091 288.285905 
L 335.305154 281.717855 
L 335.587217 281.928648 
L 336.151343 256.751441 
L 336.71547 242.553697 
L 336.997533 241.839761 
L 337.279596 238.775239 
L 337.561659 242.696893 
L 338.125785 237.246315 
L 338.407848 241.306278 
L 338.689911 239.836685 
L 338.971974 240.258331 
L 339.254037 241.534859 
L 339.5361 242.205459 
L 339.818163 241.866614 
L 340.100226 242.395486 
L 340.382289 240.608048 
L 340.664352 243.037808 
L 340.946415 242.825872 
L 341.228478 239.992961 
L 341.510541 242.777409 
L 341.792604 242.782217 
L 342.074667 240.754941 
L 342.35673 242.187546 
L 342.638793 239.522771 
L 342.920856 240.494181 
L 343.202919 236.65162 
L 343.484982 240.458661 
L 343.767045 240.186798 
L 344.049108 241.576326 
L 344.331171 241.347357 
L 344.613234 240.225624 
L 344.895297 239.579682 
L 345.17736 243.245717 
L 345.459423 238.889186 
L 345.741486 238.942078 
L 346.023549 241.766629 
L 346.305613 241.227131 
L 346.587676 240.935057 
L 346.869739 242.528586 
L 347.151802 243.334981 
L 347.433865 241.090253 
L 347.715928 241.736203 
L 347.997991 239.032333 
L 348.562117 240.285276 
L 348.84418 238.671963 
L 349.126243 238.85169 
L 349.408306 239.875466 
L 349.690369 239.751316 
L 349.972432 240.538743 
L 350.254495 241.820442 
L 350.536558 239.52857 
L 350.818621 241.272177 
L 351.100684 242.094846 
L 351.382747 243.318553 
L 351.66481 241.768871 
L 351.946873 241.58768 
L 352.228936 244.142919 
L 352.510999 240.745927 
L 352.793062 242.688935 
L 353.075125 242.436174 
L 353.357188 239.239495 
L 353.639251 241.225133 
L 353.921314 241.037905 
L 354.203377 239.017293 
L 354.48544 241.056452 
L 354.767503 241.511815 
L 355.049566 240.266532 
L 355.331629 239.62567 
L 355.613692 237.394232 
L 355.895755 240.736166 
L 356.177818 239.089177 
L 356.459882 239.081642 
L 356.741945 239.681506 
L 357.024008 239.996172 
L 357.306071 239.663273 
L 357.588134 238.991836 
L 357.870197 241.196084 
L 358.15226 242.174007 
L 358.434323 241.30023 
L 358.716386 243.33968 
L 358.998449 242.184411 
L 359.280512 241.672007 
L 359.562575 242.11752 
L 359.844638 241.493062 
L 360.126701 238.758334 
L 360.408764 240.401954 
L 360.690827 239.374865 
L 360.97289 242.765521 
L 361.254953 242.803169 
L 361.537016 241.926863 
L 362.101142 241.900031 
L 362.383205 239.33797 
L 362.665268 240.984214 
L 362.947331 239.46084 
L 363.229394 242.255656 
L 363.511457 241.076877 
L 363.79352 243.457202 
L 364.075583 242.136376 
L 364.357646 241.798505 
L 364.639709 242.889268 
L 364.921772 243.503945 
L 365.203835 238.531477 
L 365.485898 240.712037 
L 365.767961 240.209901 
L 366.050024 238.744377 
L 366.332088 240.942837 
L 366.614151 241.019238 
L 366.896214 242.066533 
L 367.178277 240.014264 
L 367.46034 239.251308 
L 367.742403 243.800225 
L 368.024466 242.716645 
L 368.306529 240.762312 
L 368.588592 242.755784 
L 368.870655 243.76777 
L 369.998907 240.243256 
L 370.28097 243.083905 
L 370.563033 241.035067 
L 370.845096 240.96089 
L 371.127159 240.501122 
L 371.409222 241.872228 
L 371.973348 238.635154 
L 372.255411 240.04686 
L 372.537474 239.253863 
L 372.819537 238.98413 
L 373.1016 239.192775 
L 373.383663 239.888962 
L 373.665726 244.204833 
L 373.947789 241.406575 
L 374.229852 240.080798 
L 374.511915 242.395118 
L 374.793978 242.153896 
L 375.076041 242.090313 
L 375.358104 242.159197 
L 375.640167 242.475398 
L 375.92223 241.753785 
L 376.204293 240.213374 
L 376.486357 241.45118 
L 376.76842 242.092022 
L 377.050483 241.003615 
L 377.332546 240.714342 
L 377.614609 241.243636 
L 377.896672 239.666707 
L 378.178735 239.539794 
L 378.460798 240.156961 
L 378.742861 238.310801 
L 379.024924 241.909582 
L 379.306987 238.25245 
L 379.58905 245.697573 
L 379.871113 241.713573 
L 380.153176 240.423402 
L 380.435239 240.343437 
L 380.717302 239.80999 
L 380.999365 240.959142 
L 381.281428 242.677345 
L 381.563491 239.559188 
L 381.845554 241.684185 
L 382.127617 242.090505 
L 382.40968 242.018936 
L 382.691743 242.786082 
L 382.973806 242.374925 
L 383.255869 244.876147 
L 383.537932 239.697293 
L 383.819995 237.127299 
L 384.384121 239.841172 
L 384.666184 239.40265 
L 384.948247 242.656444 
L 385.23031 239.725911 
L 385.512373 241.681079 
L 385.794436 239.971311 
L 386.076499 242.501596 
L 386.358563 242.073932 
L 386.640626 241.24648 
L 386.922689 241.444824 
L 387.204752 240.779691 
L 387.486815 241.760554 
L 387.768878 241.541269 
L 388.050941 242.773551 
L 388.333004 241.483933 
L 388.615067 242.055007 
L 388.89713 244.395987 
L 389.179193 239.9025 
L 389.461256 238.468438 
L 389.743319 240.760889 
L 390.025382 241.008156 
L 390.307445 240.805088 
L 390.589508 240.209871 
L 390.871571 238.509119 
L 391.153634 241.144721 
L 391.435697 242.248982 
L 391.71776 239.731701 
L 391.999823 242.228906 
L 392.281886 242.322814 
L 392.563949 241.92785 
L 392.846012 240.970344 
L 393.410138 244.18033 
L 393.974264 241.224382 
L 394.256327 244.866582 
L 394.53839 241.443359 
L 394.820453 240.824669 
L 395.102516 242.151655 
L 395.384579 237.469213 
L 395.666642 240.056704 
L 395.948705 241.376129 
L 396.512832 238.431748 
L 396.794895 241.042616 
L 397.076958 236.561547 
L 397.359021 242.953858 
L 397.641084 238.295322 
L 397.923147 237.585415 
L 398.20521 240.650396 
L 398.487273 239.110099 
L 398.487273 239.110099 
" style="fill:none;stroke:#ff0000;stroke-linecap:square;stroke-opacity:0.7;stroke-width:1.5;"/>
   </g>
   <g id="patch_13">
    <path d="M 57.6 307.584 
L 57.6 229.315765 
" style="fill:none;stroke:#000000;stroke-linecap:square;stroke-linejoin:miter;stroke-width:0.8;"/>
   </g>
   <g id="patch_14">
    <path d="M 414.72 307.584 
L 414.72 229.315765 
" style="fill:none;stroke:#000000;stroke-linecap:square;stroke-linejoin:miter;stroke-width:0.8;"/>
   </g>
   <g id="patch_15">
    <path d="M 57.6 307.584 
L 414.72 307.584 
" style="fill:none;stroke:#000000;stroke-linecap:square;stroke-linejoin:miter;stroke-width:0.8;"/>
   </g>
   <g id="patch_16">
    <path d="M 57.6 229.315765 
L 414.72 229.315765 
" style="fill:none;stroke:#000000;stroke-linecap:square;stroke-linejoin:miter;stroke-width:0.8;"/>
   </g>
   <g id="legend_1">
    <g id="line2d_42">
     <path d="M 66.6 241.815765 
L 86.6 241.815765 
" style="fill:none;stroke:#ff0000;stroke-linecap:square;stroke-opacity:0.7;stroke-width:1.5;"/>
    </g>
    <g id="line2d_43"/>
    <g id="text_25">
     <!-- new app -->
     <g transform="translate(94.6 245.315765)scale(0.1 -0.1)">
      <defs>
       <path d="M 1034 2341 
Q 1538 2947 1994 2947 
Q 2228 2947 2397 2830 
Q 2566 2713 2666 2444 
Q 2734 2256 2734 1869 
L 2734 647 
Q 2734 375 2778 278 
Q 2813 200 2889 156 
Q 2966 113 3172 113 
L 3172 0 
L 1756 0 
L 1756 113 
L 1816 113 
Q 2016 113 2095 173 
Q 2175 234 2206 353 
Q 2219 400 2219 647 
L 2219 1819 
Q 2219 2209 2117 2386 
Q 2016 2563 1775 2563 
Q 1403 2563 1034 2156 
L 1034 647 
Q 1034 356 1069 288 
Q 1113 197 1189 155 
Q 1266 113 1500 113 
L 1500 0 
L 84 0 
L 84 113 
L 147 113 
Q 366 113 442 223 
Q 519 334 519 647 
L 519 1709 
Q 519 2225 495 2337 
Q 472 2450 423 2490 
Q 375 2531 294 2531 
Q 206 2531 84 2484 
L 38 2597 
L 900 2947 
L 1034 2947 
L 1034 2341 
z
" id="TimesNewRomanPSMT-6e" transform="scale(0.015625)"/>
       <path d="M 681 1784 
Q 678 1147 991 784 
Q 1303 422 1725 422 
Q 2006 422 2214 576 
Q 2422 731 2563 1106 
L 2659 1044 
Q 2594 616 2278 264 
Q 1963 -88 1488 -88 
Q 972 -88 605 314 
Q 238 716 238 1394 
Q 238 2128 614 2539 
Q 991 2950 1559 2950 
Q 2041 2950 2350 2633 
Q 2659 2316 2659 1784 
L 681 1784 
z
M 681 1966 
L 2006 1966 
Q 1991 2241 1941 2353 
Q 1863 2528 1708 2628 
Q 1553 2728 1384 2728 
Q 1125 2728 920 2526 
Q 716 2325 681 1966 
z
" id="TimesNewRomanPSMT-65" transform="scale(0.015625)"/>
       <path d="M 41 2863 
L 1241 2863 
L 1241 2747 
Q 1075 2734 1023 2687 
Q 972 2641 972 2553 
Q 972 2456 1025 2319 
L 1638 672 
L 2253 2013 
L 2091 2434 
Q 2016 2622 1894 2694 
Q 1825 2738 1638 2747 
L 1638 2863 
L 3000 2863 
L 3000 2747 
Q 2775 2738 2681 2666 
Q 2619 2616 2619 2506 
Q 2619 2444 2644 2378 
L 3294 734 
L 3897 2319 
Q 3959 2488 3959 2588 
Q 3959 2647 3898 2694 
Q 3838 2741 3659 2747 
L 3659 2863 
L 4563 2863 
L 4563 2747 
Q 4291 2706 4163 2378 
L 3206 -88 
L 3078 -88 
L 2363 1741 
L 1528 -88 
L 1413 -88 
L 494 2319 
Q 403 2547 315 2626 
Q 228 2706 41 2747 
L 41 2863 
z
" id="TimesNewRomanPSMT-77" transform="scale(0.015625)"/>
       <path id="TimesNewRomanPSMT-20" transform="scale(0.015625)"/>
       <path d="M 1822 413 
Q 1381 72 1269 19 
Q 1100 -59 909 -59 
Q 613 -59 420 144 
Q 228 347 228 678 
Q 228 888 322 1041 
Q 450 1253 767 1440 
Q 1084 1628 1822 1897 
L 1822 2009 
Q 1822 2438 1686 2597 
Q 1550 2756 1291 2756 
Q 1094 2756 978 2650 
Q 859 2544 859 2406 
L 866 2225 
Q 866 2081 792 2003 
Q 719 1925 600 1925 
Q 484 1925 411 2006 
Q 338 2088 338 2228 
Q 338 2497 613 2722 
Q 888 2947 1384 2947 
Q 1766 2947 2009 2819 
Q 2194 2722 2281 2516 
Q 2338 2381 2338 1966 
L 2338 994 
Q 2338 584 2353 492 
Q 2369 400 2405 369 
Q 2441 338 2488 338 
Q 2538 338 2575 359 
Q 2641 400 2828 588 
L 2828 413 
Q 2478 -56 2159 -56 
Q 2006 -56 1915 50 
Q 1825 156 1822 413 
z
M 1822 616 
L 1822 1706 
Q 1350 1519 1213 1441 
Q 966 1303 859 1153 
Q 753 1003 753 825 
Q 753 600 887 451 
Q 1022 303 1197 303 
Q 1434 303 1822 616 
z
" id="TimesNewRomanPSMT-61" transform="scale(0.015625)"/>
       <path d="M -6 2578 
L 875 2934 
L 994 2934 
L 994 2266 
Q 1216 2644 1439 2795 
Q 1663 2947 1909 2947 
Q 2341 2947 2628 2609 
Q 2981 2197 2981 1534 
Q 2981 794 2556 309 
Q 2206 -88 1675 -88 
Q 1444 -88 1275 -22 
Q 1150 25 994 166 
L 994 -706 
Q 994 -1000 1030 -1079 
Q 1066 -1159 1155 -1206 
Q 1244 -1253 1478 -1253 
L 1478 -1369 
L -22 -1369 
L -22 -1253 
L 56 -1253 
Q 228 -1256 350 -1188 
Q 409 -1153 442 -1076 
Q 475 -1000 475 -688 
L 475 2019 
Q 475 2297 450 2372 
Q 425 2447 370 2484 
Q 316 2522 222 2522 
Q 147 2522 31 2478 
L -6 2578 
z
M 994 2081 
L 994 1013 
Q 994 666 1022 556 
Q 1066 375 1236 237 
Q 1406 100 1666 100 
Q 1978 100 2172 344 
Q 2425 663 2425 1241 
Q 2425 1897 2138 2250 
Q 1938 2494 1663 2494 
Q 1513 2494 1366 2419 
Q 1253 2363 994 2081 
z
" id="TimesNewRomanPSMT-70" transform="scale(0.015625)"/>
      </defs>
      <use xlink:href="#TimesNewRomanPSMT-6e"/>
      <use x="50" xlink:href="#TimesNewRomanPSMT-65"/>
      <use x="94.384766" xlink:href="#TimesNewRomanPSMT-77"/>
      <use x="166.601562" xlink:href="#TimesNewRomanPSMT-20"/>
      <use x="191.601562" xlink:href="#TimesNewRomanPSMT-61"/>
      <use x="235.986328" xlink:href="#TimesNewRomanPSMT-70"/>
      <use x="285.986328" xlink:href="#TimesNewRomanPSMT-70"/>
     </g>
    </g>
   </g>
  </g>
 </g>
 <defs>
  <clipPath id="p2dd14d7e5c">
   <rect height="78.268235" width="357.12" x="57.6" y="41.472"/>
  </clipPath>
  <clipPath id="pa4f5fba2f3">
   <rect height="78.268235" width="357.12" x="57.6" y="135.393882"/>
  </clipPath>
  <clipPath id="p9e8aa6cad1">
   <rect height="78.268235" width="357.12" x="57.6" y="229.315765"/>
  </clipPath>
 </defs>
</svg>
